<?xml version="1.0" encoding="UTF-8"?>
<svg id="Layer_2" data-name="Layer 2" xmlns="http://www.w3.org/2000/svg" viewBox="0 0 305.18 140.11">
  <defs>
    <style>
      .cls-1 {
        fill: #ebebeb;
      }

      .cls-2 {
        fill: #ea4114;
      }
    </style>
  </defs>
  <g id="Layer_1-2" data-name="Layer 1">
    <g>
      <g>
        <path class="cls-1" d="M65.29,54c-.25-.38-.25-.87,0-1.24L98.94,3.07c.5-.72-.03-1.72-.93-1.72h-33.22c-.37,0-.71.18-.91.49L22.82,62.45c-.22.31-.56.49-.93.49-.21,0-.4-.06-.59-.18-.51-.34-.66-1.03-.31-1.56l1.07-1.59c2.68-3.97,4.62-8,5.82-12.12,1.21-4.12,1.82-8.5,1.82-13.15V2.46c0-.6-.5-1.1-1.1-1.1H1.1c-.6,0-1.1.5-1.1,1.1v101.84c0,.6.5,1.1,1.1,1.1h28.04c.37,0,.71-.18.91-.49l23.84-35.34c.35-.51,1.07-.65,1.57-.26l.03.03c.47.35.59,1,.25,1.49l-1.06,1.59c-2.09,3.13-3.07,6.35-2.97,9.69s1.09,6.43,2.97,9.25l9.19,13.56c.21.31.54.49.91.49h33.22c.88,0,1.41-.99.93-1.72l-33.65-49.69h0Z"/>
        <path class="cls-1" d="M198.22,1.35h-27.51c-.6,0-1.1.5-1.1,1.1v27.73c0,2.57.19,5.34.59,8.25.4,2.93.97,5.84,1.71,8.78.74,2.94,1.62,5.76,2.65,8.54,1.03,2.78,2.15,5.31,3.38,7.57l.51.97c.29.53.09,1.21-.44,1.49l-.07.04c-.53.31-1.21.1-1.5-.44L142.11,1.93c-.19-.37-.57-.59-.97-.59h-30.94c-.6,0-1.1.5-1.1,1.1v101.84c0,.6.5,1.1,1.1,1.1h27.51c.6,0,1.1-.5,1.1-1.1v-27.73c0-2.57-.21-5.34-.59-8.25s-.96-5.84-1.71-8.76c-.74-2.93-1.62-5.76-2.65-8.54-1.01-2.78-2.15-5.31-3.38-7.59l-.51-.97c-.29-.53-.09-1.19.44-1.49l.09-.04c.53-.29,1.21-.1,1.5.44l34.31,63.47c.19.37.56.59.97.59h30.94c.6,0,1.1-.5,1.1-1.1V2.46c0-.6-.5-1.1-1.1-1.1h-.03.01Z"/>
        <path class="cls-1" d="M304.68,86.64l-22.35-16.97c-.44-.34-1.09-.29-1.47.12-2.01,2.18-4.41,3.9-7.22,5.18-3.12,1.41-6.59,2.12-10.4,2.12-3.47,0-6.66-.59-9.59-1.75s-5.44-2.79-7.54-4.91c-2.1-2.1-3.74-4.6-4.91-7.5-1.16-2.9-1.75-6.09-1.75-9.56s.59-6.66,1.75-9.56c1.16-2.9,2.79-5.4,4.91-7.5,2.12-2.1,4.62-3.74,7.54-4.91,2.93-1.16,6.12-1.75,9.59-1.75,3.82,0,7.28.69,10.4,2.09,2.79,1.25,5.19,2.96,7.15,5.12.38.43,1.01.47,1.49.13l22.41-16.9c.5-.38.59-1.1.19-1.57-4.68-5.66-10.46-10.13-17.31-13.38-7.21-3.41-15.32-5.13-24.34-5.13-7.78,0-14.96,1.31-21.51,3.94-6.56,2.62-12.22,6.31-16.94,11.03-4.74,4.74-8.43,10.37-11.07,16.87-2.66,6.51-3.97,13.69-3.97,21.51s1.32,14.94,3.97,21.48,6.34,12.18,11.07,16.91c4.72,4.72,10.38,8.41,16.94,11.04,6.56,2.62,13.73,3.94,21.51,3.94,6.75,0,13-.96,18.73-2.87l.75-6.26c0-3.29-.43-6.4-1.28-9.31-.85-2.91-2.24-5.76-4.12-8.57l-.76-1.12c-.24-.37-.15-.87.24-1.1.13-.09.28-.12.43-.12.25,0,.5.12.66.34l12.82,22.31c5.51-3.07,10.26-7,14.23-11.79.4-.49.31-1.21-.19-1.57l-.03-.03h-.03Z"/>
        <path class="cls-2" d="M275.11,53.38c0,6.57-5.34,11.9-11.9,11.9s-11.9-5.34-11.9-11.9,5.34-11.9,11.9-11.9c1.22,0,2.4.18,3.5.51-2.06.93-3.5,3-3.5,5.43,0,3.28,2.66,5.96,5.96,5.96,2.41,0,4.5-1.43,5.43-3.5.34,1.1.51,2.28.51,3.5h0Z"/>
      </g>
      <g>
        <path class="cls-2" d="M5.16,139.11c-1.19-.66-2.13-1.59-2.81-2.78-.68-1.19-1.01-2.53-1.01-4.03s.34-2.84,1.01-4.01,1.62-2.1,2.81-2.76,2.54-.99,4.06-.99c1.32,0,2.5.25,3.53.76s1.85,1.26,2.46,2.25l-1.54,1.04c-.5-.75-1.15-1.32-1.93-1.71-.78-.38-1.62-.57-2.53-.57-1.1,0-2.1.25-2.99.74s-1.57,1.19-2.06,2.1c-.5.91-.74,1.96-.74,3.12s.25,2.22.74,3.13c.5.9,1.18,1.6,2.06,2.09s1.88.74,2.99.74c.91,0,1.75-.19,2.53-.56s1.41-.93,1.93-1.69l1.54,1.04c-.6.99-1.43,1.74-2.47,2.25-1.04.51-2.22.76-3.51.76-1.51,0-2.87-.32-4.06-.99v.06Z"/>
        <path class="cls-2" d="M50.76,125.33c.96-.53,2.15-.78,3.56-.78v2l-.5-.03c-1.62,0-2.87.5-3.78,1.49s-1.37,2.38-1.37,4.16v7.79h-2.06v-15.31h1.99v3c.49-1.03,1.21-1.81,2.16-2.32h0Z"/>
        <path class="cls-2" d="M98.57,132.95h-12.79c.12,1.59.72,2.88,1.84,3.85,1.1.99,2.5,1.47,4.19,1.47.96,0,1.82-.18,2.62-.51s1.49-.84,2.06-1.5l1.16,1.34c-.68.81-1.53,1.44-2.54,1.87-1.01.43-2.13.65-3.37.65-1.57,0-2.96-.34-4.18-1-1.21-.66-2.16-1.59-2.84-2.78-.68-1.18-1.01-2.51-1.01-4.01s.32-2.84.97-4.01c.65-1.18,1.54-2.1,2.68-2.76,1.13-.66,2.41-.99,3.82-.99s2.69.32,3.81.99c1.12.66,2,1.57,2.65,2.75.65,1.18.96,2.51.96,4.03l-.03.63h.01ZM87.47,127.73c-1,.94-1.57,2.16-1.71,3.68h10.85c-.13-1.51-.71-2.74-1.71-3.68s-2.25-1.41-3.74-1.41-2.71.47-3.71,1.41h0Z"/>
        <path class="cls-2" d="M139.67,126.04c1.07,1,1.6,2.49,1.6,4.44v9.49h-1.99v-2.38c-.47.79-1.15,1.41-2.04,1.87s-1.97.66-3.22.66c-1.71,0-3.06-.41-4.07-1.22s-1.51-1.9-1.51-3.24.47-2.35,1.41-3.15c.94-.79,2.44-1.19,4.5-1.19h4.85v-.93c0-1.32-.37-2.32-1.1-3.01s-1.81-1.03-3.24-1.03c-.97,0-1.9.16-2.79.49s-1.66.76-2.29,1.32l-.93-1.54c.78-.66,1.71-1.16,2.79-1.53,1.09-.35,2.24-.54,3.43-.54,2,0,3.53.5,4.6,1.5h0ZM137.35,137.67c.84-.53,1.46-1.31,1.87-2.31v-2.5h-4.79c-2.62,0-3.93.91-3.93,2.74,0,.9.34,1.59,1.01,2.1s1.63.76,2.85.76,2.16-.26,3-.79h-.01Z"/>
        <path class="cls-2" d="M182.3,139.03c-.38.35-.87.62-1.44.79-.57.19-1.16.28-1.79.28-1.44,0-2.54-.38-3.32-1.16-.78-.78-1.16-1.87-1.16-3.29v-9.25h-2.74v-1.75h2.74v-3.34h2.06v3.34h4.66v1.75h-4.66v9.13c0,.91.22,1.6.68,2.09.46.47,1.1.71,1.97.71.43,0,.84-.07,1.24-.21s.74-.32,1.03-.59l.72,1.49h.03Z"/>
        <path class="cls-2" d="M213.38,120.88c-.29-.29-.44-.65-.44-1.04s.15-.72.44-1.01c.29-.29.65-.44,1.07-.44s.78.15,1.07.43.44.62.44,1c0,.43-.15.78-.44,1.07-.29.29-.65.44-1.07.44s-.78-.15-1.07-.44h0ZM213.41,124.66h2.06v15.31h-2.06v-15.31Z"/>
        <path class="cls-2" d="M261.43,124.66l-6.81,15.31h-2.12l-6.78-15.31h2.15l5.74,13.03,5.79-13.03h2.03Z"/>
        <path class="cls-2" d="M304.58,132.95h-12.79c.12,1.59.72,2.88,1.84,3.85,1.1.99,2.5,1.47,4.19,1.47.96,0,1.82-.18,2.62-.51s1.49-.84,2.06-1.5l1.16,1.34c-.68.81-1.53,1.44-2.54,1.87-1.01.43-2.13.65-3.37.65-1.57,0-2.96-.34-4.18-1-1.21-.66-2.16-1.59-2.84-2.78-.68-1.18-1.01-2.51-1.01-4.01s.32-2.84.97-4.01c.65-1.18,1.54-2.1,2.68-2.76,1.13-.66,2.41-.99,3.82-.99s2.69.32,3.81.99,2,1.57,2.65,2.75c.65,1.18.96,2.51.96,4.03l-.03.63h.01ZM293.48,127.73c-1,.94-1.57,2.16-1.71,3.68h10.85c-.13-1.51-.71-2.74-1.71-3.68s-2.25-1.41-3.74-1.41-2.71.47-3.71,1.41h0Z"/>
      </g>
    </g>
  </g>
</svg>