<?xml version="1.0" encoding="UTF-8"?>
<svg id="Layer_2" data-name="Layer 2" xmlns="http://www.w3.org/2000/svg" viewBox="0 0 344.92 113.36">
  <defs>
    <style>
      .cls-1 {
        fill: #ebebeb;
      }

      .cls-2 {
        fill: #ea4114;
      }
    </style>
  </defs>
  <g id="Layer_1-2" data-name="Layer 1">
    <g>
      <g>
        <path class="cls-1" d="M171.72,51.19c-.18-.28-.18-.63,0-.89l24.29-35.88c.36-.52-.02-1.24-.67-1.24h-23.99c-.27,0-.51.13-.66.35l-29.64,43.77c-.16.22-.4.35-.67.35-.15,0-.29-.04-.42-.13-.37-.24-.48-.74-.22-1.13l.78-1.15c1.93-2.87,3.33-5.78,4.2-8.75s1.32-6.14,1.32-9.49V13.97c0-.44-.36-.8-.8-.8h-19.87c-.44,0-.8.36-.8.8v73.53c0,.44.36.8.8.8h20.25c.27,0,.51-.13.66-.35l17.21-25.51c.25-.37.78-.47,1.14-.19l.02.02c.34.25.42.72.18,1.07l-.76,1.15c-1.51,2.26-2.22,4.59-2.14,7s.79,4.64,2.14,6.68l6.64,9.79c.15.22.39.35.66.35h23.99c.64,0,1.02-.71.67-1.24l-24.29-35.88h0Z"/>
        <path class="cls-1" d="M267.69,13.18h-19.87c-.44,0-.8.36-.8.8v20.02c0,1.86.14,3.85.42,5.96.29,2.11.7,4.22,1.23,6.34s1.17,4.16,1.91,6.17c.74,2.01,1.55,3.83,2.44,5.47l.37.7c.21.38.06.87-.32,1.07l-.05.03c-.38.22-.87.07-1.08-.32l-24.77-45.83c-.14-.27-.41-.42-.7-.42h-22.34c-.44,0-.8.36-.8.8v73.53c0,.44.36.8.8.8h19.87c.44,0,.8-.36.8-.8v-20.02c0-1.86-.15-3.85-.42-5.96s-.69-4.22-1.23-6.33c-.53-2.11-1.17-4.16-1.91-6.17-.73-2.01-1.55-3.83-2.44-5.48l-.37-.7c-.21-.38-.06-.86.32-1.07l.06-.03c.38-.21.87-.07,1.08.32l24.77,45.83c.14.27.4.42.7.42h22.34c.44,0,.8-.36.8-.8V13.97c0-.44-.36-.8-.8-.8h-.02.01Z"/>
        <path class="cls-1" d="M344.56,74.76l-16.14-12.25c-.32-.24-.79-.21-1.06.08-1.45,1.57-3.19,2.81-5.21,3.74-2.25,1.02-4.76,1.53-7.51,1.53-2.51,0-4.81-.42-6.92-1.26s-3.93-2.02-5.45-3.55c-1.52-1.52-2.7-3.32-3.55-5.41-.84-2.09-1.26-4.4-1.26-6.9s.42-4.81,1.26-6.9,2.02-3.9,3.55-5.41c1.53-1.52,3.33-2.7,5.45-3.55,2.11-.84,4.42-1.26,6.92-1.26,2.76,0,5.26.5,7.51,1.51,2.02.9,3.75,2.13,5.16,3.69.28.31.73.34,1.07.1l16.18-12.2c.36-.28.42-.8.14-1.14-3.38-4.09-7.55-7.32-12.5-9.66-5.2-2.46-11.06-3.71-17.57-3.71-5.62,0-10.8.94-15.53,2.85-4.74,1.89-8.82,4.55-12.23,7.96-3.42,3.42-6.08,7.49-8,12.18-1.92,4.7-2.87,9.88-2.87,15.53s.96,10.79,2.87,15.51,4.58,8.79,8,12.21c3.41,3.41,7.5,6.07,12.23,7.97,4.74,1.89,9.92,2.85,15.53,2.85,4.87,0,9.39-.69,13.53-2.07l.54-4.52c0-2.38-.31-4.62-.92-6.72-.62-2.1-1.61-4.16-2.97-6.19l-.55-.81c-.17-.27-.11-.63.17-.8.1-.06.2-.08.31-.08.18,0,.36.08.48.24l9.26,16.11c3.98-2.22,7.41-5.05,10.28-8.52.29-.35.22-.87-.14-1.14l-.02-.02h-.02Z"/>
        <circle class="cls-2" cx="51.38" cy="51.43" r="17.18" transform="translate(-4.86 97.49) rotate(-84.35)"/>
        <path class="cls-1" d="M51.48,0C23.05,0,0,23.05,0,51.48s23.05,51.48,51.48,51.48,51.5-23.05,51.5-51.48S79.93,0,51.48,0ZM51.48,85.8c-18.95,0-34.31-15.36-34.31-34.31s15.36-34.31,34.31-34.31,34.31,15.36,34.31,34.31-15.36,34.31-34.31,34.31Z"/>
        <path class="cls-2" d="M323.21,50.74c0,4.75-3.85,8.59-8.59,8.59s-8.59-3.85-8.59-8.59,3.85-8.59,8.59-8.59c.88,0,1.73.13,2.53.37-1.49.67-2.53,2.17-2.53,3.92,0,2.37,1.92,4.3,4.3,4.3,1.74,0,3.25-1.03,3.92-2.53.24.8.37,1.65.37,2.53h0Z"/>
      </g>
      <g>
        <path class="cls-2" d="M128.3,112.64c-.86-.48-1.54-1.15-2.03-2.01-.49-.86-.73-1.83-.73-2.91s.24-2.05.73-2.9,1.17-1.52,2.03-2,1.84-.71,2.93-.71c.96,0,1.8.18,2.55.55s1.34.91,1.77,1.62l-1.11.75c-.36-.54-.83-.96-1.39-1.23-.56-.28-1.17-.41-1.83-.41-.8,0-1.52.18-2.16.53s-1.14.86-1.49,1.52c-.36.66-.53,1.41-.53,2.25s.18,1.6.53,2.26c.36.65.85,1.16,1.49,1.51s1.36.53,2.16.53c.66,0,1.26-.14,1.83-.4s1.02-.67,1.39-1.22l1.11.75c-.44.71-1.03,1.25-1.78,1.62-.75.37-1.6.55-2.54.55-1.09,0-2.07-.23-2.93-.71v.04Z"/>
        <path class="cls-2" d="M161.23,102.69c.69-.38,1.55-.56,2.57-.56v1.44l-.36-.02c-1.17,0-2.07.36-2.73,1.07s-.99,1.72-.99,3v5.63h-1.49v-11.05h1.43v2.17c.35-.74.87-1.31,1.56-1.68h0Z"/>
        <path class="cls-2" d="M195.75,108.19h-9.24c.08,1.15.52,2.08,1.33,2.78.8.71,1.8,1.06,3.03,1.06.69,0,1.32-.13,1.89-.37s1.07-.61,1.49-1.08l.84.97c-.49.58-1.1,1.04-1.84,1.35-.73.31-1.54.47-2.43.47-1.14,0-2.13-.24-3.02-.72-.87-.48-1.56-1.15-2.05-2.01-.49-.85-.73-1.82-.73-2.9s.23-2.05.7-2.9c.47-.85,1.11-1.52,1.93-2,.82-.48,1.74-.71,2.76-.71s1.94.23,2.75.71,1.44,1.14,1.91,1.99c.47.85.69,1.82.69,2.91l-.02.46h.01ZM187.73,104.42c-.72.68-1.14,1.56-1.23,2.65h7.84c-.1-1.09-.51-1.97-1.23-2.65s-1.62-1.02-2.7-1.02-1.95.34-2.68,1.02h0Z"/>
        <path class="cls-2" d="M225.42,103.2c.78.72,1.16,1.79,1.16,3.21v6.85h-1.43v-1.72c-.34.57-.83,1.02-1.48,1.35s-1.42.48-2.33.48c-1.23,0-2.21-.3-2.94-.88s-1.09-1.37-1.09-2.34.34-1.7,1.02-2.27c.68-.57,1.76-.86,3.25-.86h3.5v-.67c0-.96-.27-1.68-.8-2.18s-1.31-.74-2.34-.74c-.7,0-1.37.12-2.02.35s-1.2.55-1.66.96l-.67-1.11c.56-.48,1.23-.84,2.02-1.1.79-.25,1.61-.39,2.47-.39,1.44,0,2.55.36,3.32,1.08h0ZM223.74,111.6c.61-.38,1.05-.94,1.35-1.67v-1.81h-3.46c-1.89,0-2.83.66-2.83,1.97,0,.65.24,1.15.73,1.52s1.18.55,2.06.55,1.56-.19,2.17-.57h-.01Z"/>
        <path class="cls-2" d="M256.2,112.58c-.28.25-.63.45-1.04.57-.41.14-.84.2-1.3.2-1.04,0-1.84-.28-2.4-.84-.56-.56-.84-1.35-.84-2.38v-6.68h-1.97v-1.26h1.97v-2.41h1.49v2.41h3.37v1.26h-3.37v6.59c0,.66.16,1.16.49,1.51.33.34.8.51,1.42.51.31,0,.61-.05.89-.15s.53-.23.74-.42l.52,1.07h.02Z"/>
        <path class="cls-2" d="M278.64,99.48c-.21-.21-.32-.47-.32-.75s.11-.52.32-.73c.21-.21.47-.32.78-.32s.56.11.78.31.32.45.32.72c0,.31-.11.56-.32.78-.21.21-.47.32-.78.32s-.56-.11-.78-.32h0ZM278.66,102.2h1.49v11.05h-1.49v-11.05Z"/>
        <path class="cls-2" d="M313.34,102.2l-4.92,11.05h-1.53l-4.89-11.05h1.55l4.14,9.41,4.18-9.41h1.47Z"/>
        <path class="cls-2" d="M344.49,108.19h-9.24c.08,1.15.52,2.08,1.33,2.78.8.71,1.8,1.06,3.03,1.06.69,0,1.32-.13,1.89-.37s1.07-.61,1.49-1.08l.84.97c-.49.58-1.1,1.04-1.84,1.35-.73.31-1.54.47-2.43.47-1.14,0-2.13-.24-3.02-.72-.87-.48-1.56-1.15-2.05-2.01-.49-.85-.73-1.82-.73-2.9s.23-2.05.7-2.9c.47-.85,1.11-1.52,1.93-2,.82-.48,1.74-.71,2.76-.71s1.94.23,2.75.71,1.44,1.14,1.91,1.99c.47.85.69,1.82.69,2.91l-.02.46h.01ZM336.47,104.42c-.72.68-1.14,1.56-1.23,2.65h7.84c-.1-1.09-.51-1.97-1.23-2.65s-1.62-1.02-2.7-1.02-1.95.34-2.68,1.02h0Z"/>
      </g>
    </g>
  </g>
</svg>