<?xml version="1.0" encoding="UTF-8"?>
<svg id="Layer_2" data-name="Layer 2" xmlns="http://www.w3.org/2000/svg" viewBox="0 0 341.73 290.81">
  <defs>
    <style>
      .cls-1 {
        fill: #fff;
      }
    </style>
  </defs>
  <g id="Layer_1-2" data-name="Layer 1">
    <g>
      <g>
        <g>
          <path class="cls-1" d="M22.25,185.4c3.33,0,6.38.53,9.14,1.6,2.76,1.06,5.12,2.57,7.07,4.53,1.95,1.96,3.46,4.31,4.53,7.07,1.06,2.76,1.6,5.81,1.6,9.14v21.39h-10.35v-4.14c-1.04,1.32-2.63,2.47-4.79,3.45-2.16.98-4.82,1.47-7.98,1.47s-5.98-.53-8.63-1.6c-2.65-1.06-4.92-2.57-6.81-4.53-1.9-1.95-3.38-4.31-4.44-7.07-1.06-2.76-1.6-5.81-1.6-9.14s.53-6.37,1.6-9.1c1.06-2.73,2.57-5.06,4.53-6.99,1.95-1.93,4.3-3.42,7.03-4.49,2.73-1.06,5.76-1.6,9.1-1.6ZM34.24,207.65c0-4.02-1.08-7.16-3.23-9.4-2.16-2.24-5.05-3.36-8.67-3.36s-6.53,1.12-8.71,3.36c-2.19,2.24-3.28,5.38-3.28,9.4s1.09,7.16,3.28,9.4c2.18,2.24,5.09,3.36,8.71,3.36s6.51-1.12,8.67-3.36c2.16-2.24,3.23-5.38,3.23-9.4Z"/>
          <path class="cls-1" d="M58.82,207.65c0,4.03,1.08,7.16,3.23,9.4,2.16,2.24,5.05,3.36,8.67,3.36,2.64,0,4.9-.6,6.77-1.81,1.87-1.21,3.26-2.9,4.18-5.09h10.78c-1.15,5.06-3.62,9.06-7.42,11.99-3.8,2.93-8.54,4.4-14.23,4.4-3.34,0-6.38-.53-9.14-1.6-2.76-1.06-5.12-2.57-7.07-4.53-1.96-1.95-3.47-4.31-4.53-7.07-1.06-2.76-1.6-5.81-1.6-9.14s.53-6.37,1.6-9.1c1.06-2.73,2.57-5.06,4.53-6.99,1.95-1.93,4.31-3.42,7.07-4.49,2.76-1.06,5.81-1.6,9.14-1.6,5.63,0,10.35,1.45,14.15,4.36,3.79,2.9,6.27,6.83,7.42,11.77h-10.78c-.92-2.13-2.32-3.77-4.18-4.92-1.87-1.15-4.1-1.72-6.68-1.72-3.62,0-6.51,1.12-8.67,3.36-2.16,2.24-3.23,5.38-3.23,9.4Z"/>
          <path class="cls-1" d="M116.96,220.41c4.37,0,7.62-1.55,9.75-4.66h11.3c-1.44,4.37-3.98,7.82-7.63,10.35-3.65,2.53-8.09,3.79-13.33,3.79-3.34,0-6.38-.53-9.14-1.6-2.76-1.06-5.12-2.57-7.07-4.53-1.96-1.95-3.46-4.31-4.53-7.07-1.06-2.76-1.6-5.81-1.6-9.14s.53-6.37,1.6-9.1c1.06-2.73,2.57-5.06,4.53-6.99,1.95-1.93,4.31-3.42,7.07-4.49,2.76-1.06,5.81-1.6,9.14-1.6s6.37.53,9.1,1.6c2.73,1.06,5.07,2.56,7.03,4.49,1.95,1.93,3.46,4.26,4.53,6.99,1.06,2.73,1.6,5.77,1.6,9.1,0,.63-.01,1.22-.04,1.77-.03.55-.07,1.11-.13,1.68h-33.73c.57,2.99,1.87,5.3,3.88,6.94,2.01,1.64,4.57,2.46,7.68,2.46ZM127.83,201.53c-.92-2.13-2.31-3.77-4.18-4.92-1.87-1.15-4.1-1.72-6.68-1.72s-4.8.58-6.64,1.72c-1.84,1.15-3.22,2.79-4.14,4.92h21.65Z"/>
          <path class="cls-1" d="M163.1,185.22c3.56,0,6.6.59,9.1,1.77,2.5,1.18,4.56,2.67,6.17,4.49,1.61,1.81,2.77,3.78,3.49,5.91.72,2.13,1.08,4.14,1.08,6.04v25.7h-10.35v-25.44c0-1.55-.26-2.88-.78-3.97-.52-1.09-1.21-2.01-2.07-2.76-.86-.75-1.87-1.29-3.02-1.64-1.15-.34-2.36-.52-3.62-.52s-2.47.17-3.62.52c-1.15.35-2.16.89-3.02,1.64-.86.75-1.55,1.67-2.07,2.76-.52,1.09-.78,2.42-.78,3.97v25.44h-10.35v-25.7c0-1.9.36-3.91,1.08-6.04.72-2.13,1.88-4.1,3.49-5.91,1.61-1.81,3.67-3.31,6.17-4.49,2.5-1.18,5.53-1.77,9.1-1.77Z"/>
          <path class="cls-1" d="M209.42,220.24v9.49c-7.13,0-12.52-1.74-16.17-5.22-3.65-3.47-5.48-8.55-5.48-15.22v-40.54h10.35v17.25h9.83v9.49h-9.83v13.71c0,3.97.86,6.8,2.59,8.5,1.72,1.7,4.63,2.54,8.71,2.54Z"/>
          <path class="cls-1" d="M233.14,220.41c4.37,0,7.62-1.55,9.75-4.66h11.3c-1.44,4.37-3.98,7.82-7.63,10.35-3.65,2.53-8.09,3.79-13.33,3.79-3.34,0-6.38-.53-9.14-1.6-2.76-1.06-5.12-2.57-7.07-4.53-1.96-1.95-3.46-4.31-4.53-7.07-1.06-2.76-1.6-5.81-1.6-9.14s.53-6.37,1.6-9.1c1.06-2.73,2.57-5.06,4.53-6.99,1.95-1.93,4.31-3.42,7.07-4.49,2.76-1.06,5.81-1.6,9.14-1.6s6.37.53,9.1,1.6c2.73,1.06,5.07,2.56,7.03,4.49,1.95,1.93,3.46,4.26,4.53,6.99,1.06,2.73,1.6,5.77,1.6,9.1,0,.63-.01,1.22-.04,1.77-.03.55-.07,1.11-.13,1.68h-33.73c.57,2.99,1.87,5.3,3.88,6.94,2.01,1.64,4.57,2.46,7.68,2.46ZM244.01,201.53c-.92-2.13-2.31-3.77-4.18-4.92-1.87-1.15-4.1-1.72-6.68-1.72s-4.8.58-6.64,1.72c-1.84,1.15-3.22,2.79-4.14,4.92h21.65Z"/>
          <path class="cls-1" d="M284.98,217.74h-26.82v-7.85l28.89-41.14h8.71v39.07h4.23v9.92h-4.23v11.39h-10.78v-11.39ZM284.98,207.82v-18.89l-13.2,18.89h13.2Z"/>
          <path class="cls-1" d="M302.92,222.83c.17-3.79.99-7,2.46-9.62,1.47-2.62,3.23-4.86,5.3-6.73,2.07-1.87,4.3-3.51,6.68-4.92,2.39-1.41,4.58-2.85,6.6-4.31,2.01-1.47,3.68-3.06,5-4.79,1.32-1.73,1.98-3.85,1.98-6.38,0-1.04-.14-2.06-.43-3.06-.29-1-.75-1.9-1.38-2.67-.63-.78-1.48-1.41-2.54-1.9-1.06-.49-2.37-.73-3.92-.73-2.59,0-5.12.63-7.59,1.9-2.47,1.26-4.92,2.88-7.33,4.83l-5.17-8.45c1.15-.92,2.43-1.87,3.84-2.85,1.41-.98,2.96-1.85,4.66-2.63,1.7-.78,3.52-1.42,5.48-1.94,1.95-.52,4.05-.78,6.3-.78,3.1,0,5.82.49,8.15,1.47,2.33.98,4.3,2.32,5.91,4.01,1.61,1.7,2.82,3.65,3.62,5.87.8,2.21,1.21,4.59,1.21,7.12,0,3.16-.59,5.92-1.77,8.28-1.18,2.36-2.7,4.46-4.57,6.3-1.87,1.84-3.91,3.48-6.12,4.92-2.21,1.44-4.34,2.85-6.38,4.23-2.04,1.38-3.88,2.8-5.52,4.27-1.64,1.47-2.77,3.12-3.41,4.96h27.17v9.92h-38.21v-6.3Z"/>
        </g>
        <path class="cls-1" d="M278.07,117.52l-14.68,14.69c-1.74,1.74-4.57,1.74-6.31,0l-84.45-84.45c-6.04-6.04-15.82-6.04-21.85,0l-73.31,73.31-3.55-3.55c-6.03-6.03-6.03-15.81,0-21.85L165.06,4.52c6.03-6.03,15.82-6.03,21.85,0l91.15,91.14c6.03,6.04,6.03,15.82,0,21.85Z"/>
      </g>
      <g>
        <path class="cls-1" d="M113.53,265.32c0,.54.3.95.89,1.25.59.3,1.35.57,2.25.83.91.25,1.88.52,2.92.8,1.04.28,2.02.68,2.92,1.21.91.52,1.66,1.21,2.25,2.08s.89,1.99.89,3.39c0,1.13-.22,2.14-.65,3.01-.43.88-1.03,1.61-1.81,2.21-.77.6-1.69,1.04-2.74,1.34-1.06.3-2.22.45-3.5.45-1.19,0-2.27-.12-3.24-.36-.97-.24-1.83-.53-2.59-.87-.76-.34-1.41-.71-1.96-1.12-.55-.4-1-.75-1.36-1.05l2.86-4.2c.95.89,1.99,1.56,3.1,2.01,1.12.45,2.22.67,3.33.67.92,0,1.69-.16,2.3-.47s.92-.8.92-1.45-.3-1.15-.89-1.5c-.6-.34-1.35-.64-2.25-.89-.91-.25-1.88-.52-2.92-.8-1.04-.28-2.02-.68-2.92-1.18-.91-.51-1.66-1.17-2.25-1.99-.6-.82-.89-1.91-.89-3.28,0-2.05.72-3.64,2.16-4.78,1.44-1.13,3.43-1.7,5.96-1.7,1.1,0,2.11.11,3.03.31.92.21,1.76.47,2.52.78.76.31,1.45.67,2.08,1.07.62.4,1.17.81,1.65,1.23l-2.86,4.15c-1.19-.98-2.34-1.67-3.46-2.05s-2.14-.58-3.06-.58c-.86,0-1.53.13-1.99.4-.46.27-.69.62-.69,1.07Z"/>
        <path class="cls-1" d="M127.41,252.83c0-.8.28-1.5.85-2.08.56-.58,1.26-.87,2.1-.87s1.53.29,2.1.87c.56.58.85,1.27.85,2.08,0,.86-.28,1.58-.85,2.14-.57.57-1.26.85-2.1.85s-1.53-.28-2.1-.85c-.57-.56-.85-1.28-.85-2.14ZM127.68,259.3h5.36v22.32h-5.36v-22.32Z"/>
        <path class="cls-1" d="M157.9,280.72c0,1.49-.27,2.85-.8,4.08-.54,1.23-1.29,2.3-2.25,3.19-.97.89-2.14,1.58-3.5,2.08-1.37.49-2.9.74-4.6.74-2.26,0-4.28-.44-6.05-1.32-1.77-.88-3.24-2.06-4.4-3.55l4.37-3.08c.59.74,1.38,1.43,2.34,2.08.97.64,2.22.96,3.77.96,1.87,0,3.3-.48,4.28-1.45s1.47-2.21,1.47-3.73v-1.29c-.54.68-1.36,1.28-2.48,1.79-1.12.5-2.49.76-4.13.76s-3.1-.28-4.46-.83c-1.37-.55-2.54-1.33-3.53-2.34s-1.75-2.23-2.3-3.66c-.55-1.43-.83-3-.83-4.73s.27-3.29.83-4.71c.55-1.41,1.33-2.62,2.34-3.62,1.01-1,2.22-1.77,3.64-2.32,1.41-.55,2.98-.83,4.71-.83s3.3.28,4.73.83c1.43.55,2.65,1.33,3.66,2.34,1.01,1.01,1.79,2.23,2.34,3.66.55,1.43.83,3.01.83,4.73v10.22ZM152.54,270.46c0-2.08-.56-3.71-1.67-4.87s-2.61-1.74-4.49-1.74-3.38.58-4.51,1.74c-1.13,1.16-1.7,2.78-1.7,4.87s.56,3.7,1.7,4.86c1.13,1.16,2.63,1.74,4.51,1.74s3.37-.58,4.49-1.74,1.67-2.78,1.67-4.86Z"/>
        <path class="cls-1" d="M159.73,270.46c0-1.73.27-3.3.83-4.71.55-1.41,1.33-2.62,2.34-3.62,1.01-1,2.23-1.77,3.66-2.32s3-.83,4.73-.83,3.29.28,4.71.83c1.41.55,2.63,1.32,3.64,2.32,1.01,1,1.79,2.2,2.34,3.62.55,1.41.83,2.98.83,4.71s-.28,3.3-.83,4.73c-.55,1.43-1.33,2.65-2.34,3.66-1.01,1.01-2.22,1.79-3.64,2.34-1.41.55-2.98.83-4.71.83s-3.3-.28-4.73-.83c-1.43-.55-2.65-1.33-3.66-2.34-1.01-1.01-1.79-2.23-2.34-3.66-.55-1.43-.83-3-.83-4.73ZM165.08,270.5c0,2.08.56,3.71,1.67,4.87,1.12,1.16,2.61,1.74,4.49,1.74s3.38-.58,4.51-1.74c1.13-1.16,1.7-2.78,1.7-4.87s-.57-3.7-1.7-4.86c-1.13-1.16-2.63-1.74-4.51-1.74s-3.37.58-4.49,1.74c-1.12,1.16-1.67,2.78-1.67,4.86Z"/>
        <path class="cls-1" d="M184.85,269.12c0-3.39,1-5.94,2.99-7.65,1.99-1.71,4.69-2.57,8.08-2.57v4.91c-1.79,0-3.18.44-4.2,1.32-1.01.88-1.52,2.21-1.52,4v12.5h-5.36v-12.5Z"/>
        <path class="cls-1" d="M209.22,277.02v4.91c-3.69,0-6.48-.9-8.37-2.7-1.89-1.8-2.83-4.43-2.83-7.88v-20.97h5.35v8.92h5.09v4.91h-5.09v7.1c0,2.05.45,3.52,1.34,4.39.9.88,2.4,1.32,4.51,1.32Z"/>
        <path class="cls-1" d="M221.45,258.99c1.73,0,3.3.28,4.73.83s2.65,1.33,3.66,2.34c1.01,1.01,1.79,2.23,2.34,3.66.55,1.43.83,3,.83,4.73v11.07h-5.36v-2.14c-.54.69-1.36,1.28-2.48,1.79-1.12.51-2.49.76-4.13.76s-3.1-.28-4.46-.83c-1.37-.55-2.54-1.33-3.53-2.34-.98-1.01-1.75-2.23-2.3-3.66-.55-1.43-.83-3-.83-4.73s.27-3.3.83-4.71c.55-1.41,1.33-2.62,2.34-3.62,1.01-1,2.22-1.77,3.64-2.32,1.41-.55,2.98-.83,4.71-.83ZM227.65,270.5c0-2.08-.56-3.7-1.67-4.86s-2.61-1.74-4.49-1.74-3.38.58-4.51,1.74c-1.13,1.16-1.7,2.78-1.7,4.86s.56,3.71,1.7,4.87c1.13,1.16,2.63,1.74,4.51,1.74s3.37-.58,4.49-1.74,1.67-2.78,1.67-4.87Z"/>
      </g>
    </g>
  </g>
</svg>