<?xml version="1.0" encoding="UTF-8"?>
<svg id="Layer_2" data-name="Layer 2" xmlns="http://www.w3.org/2000/svg" viewBox="0 0 362.58 95.27">
  <defs>
    <style>
      .cls-1 {
        fill-rule: evenodd;
      }

      .cls-1, .cls-2 {
        fill: #fff;
      }
    </style>
  </defs>
  <g id="Layer_1-2" data-name="Layer 1">
    <g id="uuid-6b199e0f-5472-497a-bb57-6ca1910210c9" data-name="Layer 1-2">
      <g>
        <g>
          <path class="cls-1" d="M70.74,71.75v-14.62c0-3.21-1.17-5.74-3.5-7.6-2.15-1.71-4.87-2.57-8.15-2.57-3.54,0-6.4,1.2-8.58,3.61-2.15,2.37-3.23,5.34-3.23,8.91s1.09,6.38,3.28,8.75c2,2.13,4.48,3.3,7.45,3.52h12.73ZM58.01,78.02c-5.07-.08-9.23-1.97-12.48-5.68-3.21-3.61-4.81-8.06-4.81-13.34s1.71-9.92,5.14-13.23c3.43-3.35,7.89-5.03,13.4-5.03s9.77,1.46,13.01,4.37c3.35,3.06,5.03,7.27,5.03,12.63v20.28s-19.29,0-19.29,0Z"/>
          <path class="cls-1" d="M30.02,31.02v-14.62c0-3.21-1.17-5.74-3.5-7.6-2.15-1.71-4.87-2.57-8.15-2.57-3.54,0-6.4,1.2-8.58,3.61-2.15,2.37-3.23,5.34-3.23,8.91s1.09,6.38,3.28,8.75c2,2.13,4.48,3.3,7.45,3.52h12.73ZM17.29,37.29c-5.07-.08-9.23-1.97-12.48-5.68C1.6,28,0,23.55,0,18.26S1.71,8.35,5.14,5.03C8.57,1.68,13.03,0,18.54,0s9.77,1.46,13.01,4.37c3.35,3.06,5.03,7.27,5.03,12.63v20.28h-19.29Z"/>
          <rect class="cls-2" x="80.34" y="33.23" width="6.56" height="44.79"/>
          <path class="cls-1" d="M109.35,42.2v6.23h-12.85v18.87c0,2.99,1.64,4.48,4.92,4.48h7.93v6.23h-8.86c-3.46,0-6.11-1.07-7.93-3.23-1.75-2.04-2.63-4.81-2.63-8.31v-33.25h6.56v8.97h12.86Z"/>
          <rect class="cls-2" x="112.39" y="42.2" width="6.56" height="35.82"/>
          <path class="cls-1" d="M127.94,78.02h-6.51v-20.89c0-4.59,1.39-8.35,4.16-11.27,2.81-2.92,6.51-4.37,11.1-4.37s8.27,1.46,11.04,4.37c2.81,2.92,4.21,6.67,4.21,11.27v20.89h-6.51v-20.89c0-2.59-.82-4.79-2.46-6.62-1.64-1.86-3.74-2.79-6.29-2.79s-4.65.93-6.29,2.79c-1.64,1.82-2.46,4.03-2.46,6.62v20.89h0Z"/>
          <path class="cls-1" d="M161.05,78.02h-6.62v-44.79h6.62v22.26h2.73c2.59,0,4.41-.89,5.47-2.68l6.18-10.61h7.49l-4.7,8.09c-2.33,4.01-4.19,6.18-5.58,6.51v.22c5.47,1.06,8.2,4.54,8.2,10.44v10.55h-6.62v-9.79c0-4.34-1.93-6.51-5.8-6.51h-7.38v16.31Z"/>
          <path class="cls-1" d="M211.73,71.75v-14.62c0-3.21-1.17-5.74-3.5-7.6-2.15-1.71-4.87-2.57-8.15-2.57-3.54,0-6.4,1.2-8.58,3.61-2.15,2.37-3.23,5.34-3.23,8.91s1.09,6.38,3.28,8.75c2,2.13,4.48,3.3,7.45,3.52h12.73ZM199,78.02c-5.07-.08-9.23-1.97-12.48-5.68-3.21-3.61-4.81-8.06-4.81-13.34s1.71-9.92,5.14-13.23c3.43-3.35,7.89-5.03,13.4-5.03s9.77,1.46,13.01,4.37c3.35,3.06,5.03,7.27,5.03,12.63v20.28h-19.29Z"/>
          <path class="cls-1" d="M260.28,78.02h-6.51v-20.89c0-4.59,1.39-8.35,4.16-11.27,2.81-2.92,6.51-4.37,11.1-4.37s8.27,1.46,11.04,4.37c2.81,2.92,4.21,6.67,4.21,11.27v20.89h-6.51v-20.89c0-2.59-.82-4.79-2.46-6.62-1.64-1.86-3.74-2.79-6.29-2.79s-4.65.93-6.29,2.79c-1.64,1.82-2.46,4.03-2.46,6.62v20.89h.01Z"/>
          <path class="cls-1" d="M332.04,78.02h-6.62v-44.79h6.62v22.26h2.73c2.59,0,4.41-.89,5.47-2.68l6.18-10.61h7.49l-4.7,8.09c-2.33,4.01-4.19,6.18-5.58,6.51v.22c5.47,1.06,8.2,4.54,8.2,10.44v10.55h-6.62v-9.79c0-4.34-1.93-6.51-5.8-6.51h-7.38v16.31Z"/>
          <path class="cls-1" d="M316.37,71.75v-14.62c0-3.21-1.17-5.74-3.5-7.6-2.15-1.71-4.87-2.57-8.15-2.57-3.54,0-6.4,1.2-8.58,3.61-2.15,2.37-3.23,5.34-3.23,8.91s1.09,6.38,3.28,8.75c2,2.13,4.48,3.3,7.45,3.52h12.73,0ZM303.64,78.02c-5.07-.08-9.23-1.97-12.48-5.68-3.21-3.61-4.81-8.06-4.81-13.34s1.71-9.92,5.14-13.23c3.43-3.35,7.89-5.03,13.4-5.03s9.77,1.46,13.01,4.37c3.35,3.06,5.03,7.27,5.03,12.63v20.28h-19.29Z"/>
          <path class="cls-1" d="M251.29,75.48c0,5.98-1.6,10.73-4.81,14.27-3.32,3.68-7.95,5.52-13.89,5.52-3.72,0-7.65-.69-11.81-2.08l1.59-6.01c4.34,1.2,7.64,1.81,9.9,1.81,3.83,0,6.82-.91,8.97-2.73,2.33-1.97,3.5-4.83,3.5-8.58v-1.31c-2.41,1.58-5.31,2.37-8.69,2.37-4.59,0-8.27-1.46-11.04-4.37-2.81-2.92-4.21-6.67-4.21-11.27v-20.89h6.51v20.89c0,2.59.82,4.79,2.46,6.62,1.64,1.86,3.74,2.79,6.29,2.79s4.65-.93,6.29-2.79c1.64-1.82,2.46-4.03,2.46-6.62v-20.89h6.51v33.28h-.03Z"/>
          <path class="cls-1" d="M47.29,31.02v-14.62c0-3.21,1.17-5.74,3.5-7.6,2.15-1.71,4.87-2.57,8.15-2.57,3.54,0,6.4,1.2,8.58,3.61,2.15,2.37,3.23,5.34,3.23,8.91s-1.09,6.38-3.28,8.75c-2,2.13-4.48,3.3-7.45,3.52h-12.73ZM60.02,37.29c5.07-.08,9.23-1.97,12.48-5.68,3.21-3.61,4.81-8.06,4.81-13.34s-1.71-9.92-5.14-13.23C68.74,1.69,64.28.01,58.77.01s-9.77,1.46-13.01,4.37c-3.35,3.06-5.03,7.27-5.03,12.63v20.28h19.29Z"/>
          <path class="cls-1" d="M30.02,47.7v14.62c0,3.21-1.17,5.74-3.5,7.6-2.15,1.71-4.87,2.57-8.15,2.57-3.54,0-6.4-1.2-8.58-3.61-2.15-2.37-3.23-5.34-3.23-8.91s1.09-6.38,3.28-8.75c2-2.13,4.48-3.3,7.45-3.52h12.73ZM17.29,41.43c-5.07.08-9.23,1.97-12.48,5.68C1.6,50.72,0,55.17,0,60.45s1.71,9.92,5.14,13.23c3.43,3.35,7.89,5.03,13.4,5.03s9.77-1.46,13.01-4.37c3.35-3.06,5.03-7.27,5.03-12.63v-20.28s-19.29,0-19.29,0Z"/>
        </g>
        <path class="cls-1" d="M354.09,73.37c0,2.12,1.72,3.85,3.85,3.85s3.85-1.72,3.85-3.85-1.72-3.85-3.85-3.85-3.85,1.72-3.85,3.85h0ZM353.28,73.37c0-2.57,2.08-4.65,4.65-4.65s4.65,2.08,4.65,4.65-2.08,4.65-4.65,4.65-4.65-2.08-4.65-4.65h0ZM358.16,73.17c.16,0,.31-.01.46-.04.15-.02.27-.07.38-.14.11-.07.2-.17.26-.28.07-.12.1-.28.1-.46,0-.26-.07-.47-.22-.64-.14-.16-.38-.25-.7-.25h-1.71v1.81h1.44l-2.13-2.39h2.44c.49,0,.88.12,1.15.36.28.24.42.57.42.99,0,.31-.07.59-.22.83-.14.24-.37.41-.68.5.15.03.27.08.36.14.1.07.17.15.23.25.06.09.1.2.12.31.03.12.05.24.07.36l.02.38c0,.13.02.26.04.38.02.13.05.25.08.36.04.11.09.21.17.3h-.77c-.05-.05-.08-.13-.1-.22-.01-.09-.02-.19-.03-.31v-.37c-.02-.13-.03-.26-.06-.38-.02-.13-.04-.24-.07-.36s-.08-.22-.14-.3c-.06-.09-.14-.15-.25-.2-.1-.05-.24-.08-.41-.08h-1.68v2.21h-.69v-5.18l2.13,2.39v.03Z"/>
      </g>
    </g>
  </g>
</svg>