<?xml version="1.0" encoding="UTF-8"?>
<svg id="Layer_2" data-name="Layer 2" xmlns="http://www.w3.org/2000/svg" viewBox="0 0 284.01 229.32">
  <defs>
    <style>
      .cls-1 {
        fill: #fff;
      }
    </style>
  </defs>
  <g id="Layer_1-2" data-name="Layer 1">
    <g>
      <g>
        <path class="cls-1" d="M0,131.37h8.7v52.93H0v-52.93Z"/>
        <path class="cls-1" d="M51.04,131.37h8.7v52.93h-6.81l-24.95-35.92v35.92h-8.7v-52.93h6.63l25.12,36.16v-36.16Z"/>
        <path class="cls-1" d="M121.82,156.93v3.63c0,7.26-2.39,13.2-7.18,17.81-4.79,4.61-11.04,6.92-18.75,6.92-8.17,0-14.91-2.65-20.23-7.94-5.32-5.29-7.98-11.8-7.98-19.51s2.66-14.15,7.98-19.47c5.32-5.32,11.91-7.98,19.77-7.98,4.94,0,9.45,1.13,13.54,3.4,4.08,2.27,7.26,5.32,9.53,9.15l-7.49,4.31c-1.41-2.52-3.5-4.55-6.28-6.09-2.77-1.54-5.87-2.31-9.3-2.31-5.55,0-10.11,1.81-13.69,5.44-3.58,3.63-5.37,8.17-5.37,13.61s1.8,9.96,5.41,13.54c3.6,3.58,8.33,5.37,14.18,5.37,4.69,0,8.51-1.1,11.46-3.29,2.95-2.19,4.83-5.13,5.63-8.81h-17.69v-7.79h26.47Z"/>
        <path class="cls-1" d="M138.45,175.98h23.44v8.32h-32.14v-52.93h31.76v8.32h-23.06v13.76h21.17v8.24h-21.17v14.29Z"/>
        <path class="cls-1" d="M201.59,131.37h8.7v52.93h-6.81l-24.95-35.92v35.92h-8.7v-52.93h6.63l25.12,36.16v-36.16Z"/>
        <path class="cls-1" d="M220.87,131.37h8.7v52.93h-8.7v-52.93Z"/>
        <path class="cls-1" d="M274.64,184.3l-3.73-10.66h-22.51l-3.7,10.66h-9.45l19.21-52.93h10.43l19.13,52.93h-9.38ZM251.27,165.47h16.77l-8.37-23.89-8.41,23.89Z"/>
      </g>
      <path class="cls-1" d="M182.72,35.16l-30.12-30.12c-6.72-6.72-17.63-6.72-24.35,0l-48.37,48.37,9.17,9.17,19.78-19.78c.9,6.78,3.9,12.72,9,17.83,4.34,4.34,9.29,7.16,14.84,8.46,2.67.7,5.51,1.03,8.51.97,8.43-.17,15.79-3.4,22.08-9.68,5.07-5.07,8.14-10.89,9.22-17.45l1.23,1.23c3.68,3.68,5.43,7.67,5.27,11.98-.17,4.3-2.24,8.44-6.2,12.4-6.05,6.06-12.37,8.01-18.94,5.86l-3.31,12.49c10.47,3.23,20.6-.06,30.4-9.85,6.06-6.06,9.48-12.94,10.28-20.64.79-7.7-2.04-14.77-8.49-21.23ZM139.5,57.42c-10.3-.52-18.44-8.98-18.47-19.4s8.82-19.59,19.57-19.55,18.87,8.18,19.39,18.47c.59,11.56-8.92,21.06-20.48,20.48Z"/>
      <g>
        <path class="cls-1" d="M58.81,219.68c1.33,0,2.46.46,3.39,1.39.93.93,1.39,2.07,1.39,3.42s-.46,2.5-1.39,3.42-2.06,1.39-3.39,1.39c-.87,0-1.66-.21-2.35-.63-.7-.42-1.23-.99-1.62-1.72v2.14h-.92v-12.92h.92v5.83c.38-.73.92-1.3,1.62-1.72.7-.42,1.48-.63,2.35-.63ZM55.97,227.29c.76.76,1.68,1.14,2.78,1.14s2.02-.38,2.78-1.14c.76-.76,1.14-1.69,1.14-2.79s-.38-2.02-1.14-2.79c-.76-.76-1.68-1.14-2.78-1.14s-2.02.38-2.78,1.14c-.76.76-1.14,1.69-1.14,2.79s.38,2.02,1.14,2.79Z"/>
        <path class="cls-1" d="M76.16,219.89h.92v9.23h-.92v-1.75c-.66,1.3-1.77,1.96-3.3,1.96-1.1,0-1.97-.34-2.61-1.01-.65-.67-.97-1.57-.97-2.69v-5.74h.94v5.74c0,.86.24,1.54.71,2.05.47.5,1.14.76,2,.76.95,0,1.72-.31,2.33-.94.6-.63.9-1.54.9-2.73v-4.87Z"/>
        <path class="cls-1" d="M84.54,221.7c.55-1.29,1.58-1.94,3.08-1.94v.89c-.87,0-1.61.28-2.2.84-.59.56-.89,1.39-.89,2.5v5.13h-.92v-9.23h.92v1.81Z"/>
        <path class="cls-1" d="M96.78,219.68c1.35,0,2.45.48,3.3,1.44.84.96,1.26,2.1,1.26,3.42,0,.05,0,.12,0,.22,0,.1,0,.17,0,.22h-8.36c.11,1.03.53,1.87,1.25,2.5.72.63,1.61.95,2.67.95.74,0,1.38-.15,1.94-.46.55-.31.97-.71,1.26-1.22l.81.48c-.38.64-.92,1.15-1.62,1.52-.7.38-1.5.56-2.4.56-1.42,0-2.58-.45-3.49-1.36-.91-.9-1.37-2.06-1.37-3.46s.45-2.53,1.34-3.44c.89-.92,2.04-1.38,3.44-1.38ZM96.78,220.57c-1.05,0-1.92.33-2.62.98-.7.65-1.1,1.5-1.2,2.53h7.42c-.1-1.1-.49-1.95-1.17-2.58-.68-.62-1.49-.93-2.43-.93Z"/>
        <path class="cls-1" d="M115.31,219.89h.94v9.23h-.94v-2.09c-.39.71-.94,1.27-1.62,1.68-.69.41-1.47.61-2.34.61-1.32,0-2.44-.46-3.38-1.39-.94-.93-1.4-2.07-1.4-3.42s.47-2.49,1.4-3.42c.94-.93,2.06-1.39,3.38-1.39.87,0,1.66.2,2.34.61.69.41,1.23.97,1.62,1.68v-2.09ZM108.64,227.29c.76.76,1.68,1.14,2.78,1.14s2.02-.38,2.77-1.14c.75-.76,1.13-1.69,1.13-2.79s-.38-2.02-1.13-2.79c-.75-.76-1.67-1.14-2.77-1.14s-2.02.38-2.78,1.14c-.76.76-1.14,1.69-1.14,2.79s.38,2.02,1.14,2.79Z"/>
        <path class="cls-1" d="M129.44,219.89h.92v9.23h-.92v-1.75c-.66,1.3-1.77,1.96-3.3,1.96-1.1,0-1.97-.34-2.61-1.01-.65-.67-.97-1.57-.97-2.69v-5.74h.94v5.74c0,.86.24,1.54.71,2.05.47.5,1.14.76,2,.76.95,0,1.72-.31,2.33-.94.6-.63.9-1.54.9-2.73v-4.87Z"/>
        <path class="cls-1" d="M153.66,216.2h.92v12.92h-.92v-2.14c-.38.73-.92,1.3-1.62,1.72-.7.42-1.48.63-2.35.63-1.33,0-2.46-.46-3.39-1.39-.93-.93-1.39-2.07-1.39-3.42s.46-2.49,1.39-3.42,2.06-1.39,3.39-1.39c.87,0,1.66.21,2.35.63.7.42,1.23.99,1.62,1.72v-5.83ZM146.96,227.29c.76.76,1.68,1.14,2.78,1.14s2.02-.38,2.78-1.14c.76-.76,1.14-1.69,1.14-2.79s-.38-2.02-1.14-2.79c-.76-.76-1.68-1.14-2.78-1.14s-2.02.38-2.78,1.14c-.76.76-1.14,1.69-1.14,2.79s.38,2.02,1.14,2.79Z"/>
        <path class="cls-1" d="M162.68,216.2l-1,3.84h-.85l.7-3.84h1.14Z"/>
        <path class="cls-1" d="M171.6,219.68c1.35,0,2.45.48,3.3,1.44.84.96,1.26,2.1,1.26,3.42,0,.05,0,.12,0,.22,0,.1,0,.17,0,.22h-8.36c.11,1.03.53,1.87,1.25,2.5.72.63,1.61.95,2.67.95.74,0,1.38-.15,1.94-.46.55-.31.97-.71,1.26-1.22l.81.48c-.38.64-.92,1.15-1.62,1.52-.7.38-1.5.56-2.4.56-1.42,0-2.58-.45-3.49-1.36-.91-.9-1.37-2.06-1.37-3.46s.45-2.53,1.34-3.44c.89-.92,2.04-1.38,3.44-1.38ZM171.6,220.57c-1.05,0-1.92.33-2.62.98-.7.65-1.1,1.5-1.2,2.53h7.42c-.1-1.1-.49-1.95-1.17-2.58-.68-.62-1.49-.93-2.43-.93Z"/>
        <path class="cls-1" d="M186.46,220.79h-2.75v6c0,.53.1.91.3,1.14.2.23.5.37.9.4.41.03.92.02,1.55-.05v.83c-1.24.18-2.17.1-2.78-.26-.61-.36-.91-1.05-.91-2.07v-6h-2.03v-.9h2.03v-2.31l.94-.28v2.58h2.75v.9Z"/>
        <path class="cls-1" d="M199.01,219.89h.92v9.23h-.92v-1.75c-.66,1.3-1.77,1.96-3.3,1.96-1.1,0-1.97-.34-2.61-1.01-.65-.67-.97-1.57-.97-2.69v-5.74h.94v5.74c0,.86.24,1.54.71,2.05.47.5,1.14.76,2,.76.95,0,1.72-.31,2.33-.94.6-.63.9-1.54.9-2.73v-4.87Z"/>
        <path class="cls-1" d="M214.61,216.2h.92v12.92h-.92v-2.14c-.38.73-.92,1.3-1.62,1.72-.7.42-1.48.63-2.35.63-1.33,0-2.46-.46-3.39-1.39-.93-.93-1.39-2.07-1.39-3.42s.46-2.49,1.39-3.42c.93-.93,2.06-1.39,3.39-1.39.87,0,1.66.21,2.35.63.7.42,1.23.99,1.62,1.72v-5.83ZM207.92,227.29c.76.76,1.68,1.14,2.78,1.14s2.02-.38,2.78-1.14c.76-.76,1.14-1.69,1.14-2.79s-.38-2.02-1.14-2.79c-.76-.76-1.68-1.14-2.78-1.14s-2.02.38-2.78,1.14c-.76.76-1.14,1.69-1.14,2.79s.38,2.02,1.14,2.79Z"/>
        <path class="cls-1" d="M226.22,219.68c1.35,0,2.45.48,3.3,1.44.84.96,1.26,2.1,1.26,3.42,0,.05,0,.12,0,.22,0,.1,0,.17,0,.22h-8.36c.11,1.03.53,1.87,1.25,2.5.72.63,1.61.95,2.67.95.74,0,1.38-.15,1.94-.46.55-.31.97-.71,1.26-1.22l.81.48c-.38.64-.92,1.15-1.62,1.52-.7.38-1.5.56-2.4.56-1.42,0-2.58-.45-3.49-1.36-.91-.9-1.37-2.06-1.37-3.46s.45-2.53,1.34-3.44c.89-.92,2.04-1.38,3.44-1.38ZM226.22,220.57c-1.05,0-1.92.33-2.62.98-.7.65-1.1,1.5-1.2,2.53h7.42c-.1-1.1-.49-1.95-1.17-2.58-.68-.62-1.49-.93-2.43-.93Z"/>
      </g>
    </g>
  </g>
</svg>