<?xml version="1.0" encoding="UTF-8"?>
<svg id="Layer_2" data-name="Layer 2" xmlns="http://www.w3.org/2000/svg" viewBox="0 0 171.01 145.7">
  <defs>
    <style>
      .cls-1 {
        fill-rule: evenodd;
      }

      .cls-1, .cls-2 {
        fill: #fff;
      }
    </style>
  </defs>
  <g id="Layer_1-2" data-name="Layer 1">
    <g>
      <g>
        <path class="cls-1" d="M33.12,88.38l108.84-10.69c-1.79,5.09-3.43,10.25-4.65,15.65-3.05,13.51-5.19,28.35-9.93,41.2-2.33,6.29-6.54,11.53-11.19,11.13-6.73-.57-10.87-12.35-15.62-23.32-2.99-6.91-4.75-14.05-13.42-12.79,1.23-4.31,14.17-13.29,16.63-21.06-6.25,6.07-11.94,8.89-16.25,11.69-6.79,4.43-11.41,8.42-16.72,22.85-4.02,11-8.74,22.06-15.31,22.63-4.65.41-8.86-4.84-11.19-11.13-4.75-12.85-6.88-27.69-9.93-41.2-.38-1.67-.79-3.33-1.26-4.97Z"/>
        <path class="cls-1" d="M151.76,36.33c-.13,2.8-.41,5.5-.88,8.17l-127.13,12.45c-2.04-6.63-3.55-13.39-3.83-20.62C18.97,13.92,33.78-3.39,56.84.57c9.9,1.7,26.37,11.94,35.26,4.93-3.11,6.82-12.57,15.65-20.81,20.55,6.32-.19,13.51-4.27,20.3-9.08,8.11-5.75,15.62-12.41,23.85-15.24,21.75-7.48,37.15,14.02,36.3,34.6Z"/>
        <g>
          <path class="cls-2" d="M5.71,79.32c-.17-2.21-.25-4.27-.22-6.21.03-1.93.2-3.87.51-5.82.06-.49.19-.9.4-1.25.04-.07.13-.14.29-.21.15-.07.28-.09.37-.05.11.03.21.13.29.28.08.16.1.29.07.4-.28.94-.46,1.98-.54,3.11-.09,1.13-.12,2.25-.1,3.36.02,1.11.07,2.15.14,3.11.07.96.14,1.73.19,2.32.25-.11.48-.23.7-.36.22-.13.43-.25.65-.34.22-.1.45-.15.7-.17.25-.01.55.05.89.19-.56.34-1.07.65-1.54.94-.47.29-.95.56-1.42.83.07.69.17,1.48.31,2.36s.42,1.7.85,2.47c.13-.05.23-.1.31-.15.08-.04.18-.09.28-.14,2.22-1.39,4.29-2.92,6.21-4.57,1.92-1.65,3.64-3.54,5.15-5.67.42-.57.8-1.16,1.12-1.78s.62-1.26.91-1.92c.31-.64.52-1.29.63-1.94.11-.65.1-1.28-.02-1.89-.13-.61-.38-1.16-.75-1.66-.37-.5-.89-.91-1.53-1.24-.66-.33-1.36-.56-2.1-.71-.73-.14-1.48-.2-2.24-.17-5.38.07-9.96,2.04-13.75,5.89-.22.2-.41.43-.55.69-.15.27-.31.51-.49.72-.22.26-.44.34-.66.25-.23-.1-.3-.31-.23-.62.13-.23.26-.45.39-.66.13-.21.3-.42.49-.64,1.31-1.5,2.79-2.73,4.45-3.69,1.65-.96,3.44-1.7,5.37-2.24,1.14-.35,2.3-.57,3.49-.67,1.18-.09,2.37-.01,3.57.24,1.16.24,2.2.6,3.12,1.1s1.58,1.14,1.97,1.93.56,1.71.48,2.76c-.08.77-.23,1.52-.45,2.23-.22.72-.55,1.39-.96,2.03-.51.81-1.03,1.63-1.57,2.46-.54.83-1.14,1.6-1.78,2.32-3.33,3.86-7.3,6.97-11.91,9.34-.73.38-1.45.7-2.18.98-.72.28-1.49.47-2.28.57-.45.05-.91.05-1.36.02-.45-.03-.82-.27-1.1-.72-.31-.47-.36-.91-.17-1.31.19-.4.42-.78.69-1.13.53-.81,1.13-1.56,1.81-2.24.67-.67,1.39-1.32,2.13-1.94.18-.15.35-.29.5-.41.15-.13.31-.25.47-.38ZM5.77,80.27c-.95.77-1.83,1.55-2.65,2.35-.82.8-1.5,1.72-2.05,2.75-.41.76-.14,1.15.8,1.16.98.01,1.9-.15,2.76-.5.86-.35,1.68-.73,2.47-1.16-.38-.79-.67-1.55-.86-2.29-.19-.73-.35-1.51-.47-2.32Z"/>
          <path class="cls-2" d="M24.82,64.43c.09-.44.17-.87.23-1.28.07-.41.16-.82.27-1.22.03-.11.11-.2.23-.27.13-.07.24-.13.34-.18.05.1.13.19.24.26.1.07.15.15.14.26-.03.37-.08.74-.14,1.11-.06.37-.11.73-.14,1.08.79-.17,1.64-.32,2.55-.48s1.83-.28,2.74-.38c.92-.1,1.83-.18,2.72-.25.9-.07,1.74-.1,2.52-.12.15-.01.32,0,.51.01.19.03.36.06.53.1.17.04.31.08.44.14.13.05.19.12.2.21.01.15-.04.23-.17.23-.13,0-.27-.01-.43-.04-2.05.03-4.03.18-5.94.45-1.91.28-3.84.66-5.77,1.16-.09.84-.17,1.74-.24,2.72-.07.98-.13,1.97-.18,2.99s-.1,2.03-.13,3.04c-.03,1.01-.05,1.94-.05,2.79,0,.85,0,1.6.04,2.25.03.65.08,1.14.16,1.46.13.25.39.19.77-.17.38-.37.8-.89,1.27-1.56.47-.68.94-1.43,1.43-2.26.49-.84.89-1.59,1.22-2.28.16-.32.31-.53.43-.62.12-.09.21-.11.27-.06.06.05.09.15.08.32,0,.17-.05.35-.14.55-.09.18-.25.5-.48.95-.23.45-.5.95-.82,1.52-.32.57-.66,1.15-1.04,1.75s-.75,1.15-1.12,1.63-.72.87-1.05,1.15c-.33.28-.62.39-.87.33-.13-.03-.28-.1-.44-.2s-.28-.22-.36-.34c-.19-.35-.3-.68-.34-.98s-.08-.63-.11-.97c-.07-1.37-.1-2.63-.11-3.78,0-1.15.02-2.26.06-3.33s.11-2.13.19-3.19c.08-1.06.17-2.2.27-3.41-1.03.19-2.03.45-3.01.79-.98.34-1.94.68-2.89,1.03-.3.07-.56.2-.78.39-.22.18-.47.34-.74.48-.14.17-.3.26-.49.28-.11-.01-.22-.06-.34-.15-.12-.09-.2-.15-.25-.19-.05-.04-.05-.12,0-.25.05-.13.1-.21.14-.26.19-.13.37-.26.55-.38.18-.13.37-.24.56-.35,2.46-1.16,4.94-1.98,7.44-2.46Z"/>
          <path class="cls-2" d="M32.01,77.4c-.03-.13-.02-.25.04-.36.06-.12.14-.2.25-.25.1-.05.2-.06.3-.03s.18.13.23.27c.08.17.09.32.03.46-.06.13-.15.23-.26.28-.11.05-.22.06-.35,0s-.2-.18-.24-.37Z"/>
          <path class="cls-2" d="M44.09,85.24c-.23.09-.41.07-.54-.04-.13-.12-.21-.3-.23-.53-.03-.26-.05-.54-.06-.83s0-.57.06-.84c.21-1.16.42-2.3.63-3.45.21-1.14.46-2.28.76-3.4.74-2.71,1.68-5.31,2.82-7.81,1.14-2.5,2.48-4.91,4.02-7.24.32-.49.65-.96.99-1.41.34-.45.7-.88,1.1-1.29.45-.48.91-.65,1.37-.51s.75.56.86,1.24c.1.56.14,1.13.12,1.7-.02.58-.06,1.15-.11,1.73-.16,1.96-.33,3.91-.52,5.87-.19,1.96-.34,3.94-.45,5.93-.08.97-.12,1.92-.11,2.87s.02,1.9.05,2.86c-.02.24,0,.46.03.66.04.21.09.42.13.66.05.02.09.03.14.04.04,0,.09.02.13.04.15-.21.3-.42.43-.63.13-.21.25-.43.36-.66.37-.73.73-1.47,1.1-2.21.36-.74.73-1.48,1.09-2.21.98-2.08,1.98-4.12,3.02-6.14,1.04-2.02,2.2-3.99,3.5-5.93.62-1.02,1.32-1.98,2.11-2.89.12-.16.24-.33.36-.49s.26-.32.41-.45c.15-.14.32-.23.5-.28.18-.05.4-.04.64.02.25.09.44.2.56.35.13.15.22.33.28.53.06.2.1.41.11.64.01.23.02.44.01.64.05.95.07,1.9.06,2.83s-.02,1.9-.03,2.88c0,1.83.02,3.64.04,5.43.03,1.79.17,3.6.44,5.43.06.39.14.78.26,1.18.12.4.23.81.33,1.21.05.1.06.22.02.36s-.07.27-.1.4c-.09-.04-.2-.05-.34-.05-.13,0-.23-.03-.27-.09-.14-.25-.28-.49-.44-.74s-.25-.5-.3-.76c-.16-.97-.31-1.93-.46-2.88-.15-.96-.23-1.92-.24-2.91-.06-1.76-.09-3.53-.08-5.31,0-1.78.01-3.55.02-5.32,0-.46-.01-.91-.04-1.37-.02-.46-.04-.9-.03-1.34-.14-.07-.24-.11-.3-.1-.2.22-.41.43-.64.63-.23.21-.42.44-.57.69-.8,1.21-1.59,2.4-2.37,3.57-.78,1.17-1.51,2.37-2.17,3.62-.83,1.54-1.61,3.1-2.34,4.68-.73,1.58-1.48,3.14-2.24,4.7-.26.5-.5.99-.74,1.46-.24.47-.48.94-.71,1.43-.11.19-.22.36-.32.52-.1.16-.24.32-.4.46-.32.31-.63.45-.94.4-.31-.05-.56-.26-.75-.63-.11-.27-.22-.54-.31-.82-.09-.27-.14-.55-.15-.84-.03-1.13-.05-2.26-.09-3.37-.03-1.12-.02-2.25.04-3.39.13-1.99.3-3.96.5-5.9.2-1.94.37-3.91.5-5.9.03-.42.04-.85.04-1.29,0-.45,0-.93.02-1.46-.2.15-.36.27-.48.34-.11.08-.21.15-.29.23-.25.33-.5.66-.74.99-.24.33-.47.67-.7,1.02-1.89,2.95-3.51,6-4.86,9.13-1.35,3.13-2.35,6.43-2.99,9.89-.15.71-.25,1.43-.3,2.16-.05.72-.12,1.48-.22,2.28Z"/>
          <path class="cls-2" d="M74.17,73.04c.75-.31,1.5-.76,2.24-1.35.74-.58,1.42-1.16,2.04-1.72.16-.14.29-.28.4-.42.1-.13.24-.26.4-.38.22.02.36.09.41.19.05.1,0,.24-.16.41-.29.38-.65.77-1.06,1.18s-.86.82-1.32,1.21c-.46.39-.94.75-1.42,1.05s-.92.55-1.32.72c-1.01.4-1.77.38-2.3-.07-.53-.45-.68-1.24-.46-2.38.05-.2.13-.48.25-.84.12-.36.26-.73.43-1.1.17-.37.37-.74.59-1.1.23-.36.48-.66.75-.91.27-.25.56-.39.87-.44.31-.05.63.04.96.26.26.21.39.54.39.96s-.18.87-.52,1.34c-.1.12-.23.26-.4.43-.17.17-.36.32-.56.45-.2.13-.42.21-.65.25-.23.03-.43-.03-.62-.19-.18.35-.33.71-.43,1.09-.1.38-.13.7-.07.97.06.27.21.45.45.56.24.11.61.05,1.11-.18ZM74.75,68.27c-.15.19-.36.46-.62.81-.26.35-.52.73-.79,1.12.31-.18.61-.41.9-.68.29-.27.46-.69.51-1.26Z"/>
          <path class="cls-2" d="M80.97,73.35c.14-.08.29-.31.44-.7.15-.39.3-.85.47-1.4.16-.55.34-1.17.52-1.85.18-.68.36-1.36.54-2.03.17-.67.36-1.31.55-1.92.19-.61.39-1.14.58-1.59.04-.07.11-.13.21-.19.1-.05.21-.08.32-.08.11,0,.19.03.26.1.06.07.06.19-.02.34-.31.82-.58,1.64-.8,2.48-.22.84-.44,1.67-.65,2.5-.21.83-.44,1.64-.7,2.42-.25.79-.56,1.56-.92,2.31-.26.46-.57.71-.94.73-.37.03-.66-.2-.88-.68-.36-.79-.66-1.63-.9-2.5-.24-.87-.34-1.72-.32-2.55.01-.11.07-.23.18-.37.11-.14.22-.23.35-.26.17-.06.31,0,.41.19s.15.4.13.64c-.03.61.07,1.33.29,2.15.22.82.52,1.57.89,2.25Z"/>
          <path class="cls-2" d="M87.37,72.96c.27-.4.58-.93.96-1.61.37-.68.75-1.58,1.14-2.71.06-.29.14-.5.25-.65.1-.14.2-.2.29-.19.09.01.15.1.19.27.04.17.02.4-.06.7-.15.47-.35,1.01-.61,1.63-.26.61-.54,1.21-.84,1.8-.3.59-.62,1.12-.94,1.6-.32.48-.63.82-.91,1.02-.41.3-.76.4-1.07.28-.31-.11-.54-.4-.69-.87-.16-.55-.28-1.3-.37-2.24-.08-.94-.12-1.98-.11-3.13,0-1.15.05-2.34.14-3.59.09-1.25.2-2.46.33-3.63.14-1.17.29-2.24.47-3.22.18-.98.37-1.76.57-2.35l.12-.4c.03-.09.07-.19.1-.3.03-.11.07-.22.12-.32.04-.1.11-.18.19-.23.08-.05.19-.06.32-.03.25.04.36.18.35.41-.01.23-.02.43-.02.61-.02.2-.08.41-.18.64-.1.23-.18.45-.24.68-.16.8-.32,1.77-.48,2.91-.16,1.14-.3,2.36-.43,3.67-.12,1.31-.2,2.66-.24,4.06-.04,1.4,0,2.76.14,4.07.05.54.1,1,.14,1.38.04.38.1.63.2.75.1.12.23.1.41-.04.17-.15.43-.47.77-.96Z"/>
          <path class="cls-2" d="M90.36,71.81c.76-.86,1.45-1.72,2.07-2.57.62-.86,1.21-1.76,1.77-2.71.13-.19.24-.36.32-.52.08-.16.2-.3.36-.43.04-.07.1-.13.19-.17.09-.04.2-.05.31-.01.05.02.11.06.19.13.08.07.11.13.07.21,0,.2-.03.57-.07,1.14-.04.56-.07,1.14-.07,1.76,0,.61.04,1.16.13,1.66.09.49.28.77.57.83.34.1.64-.06.92-.46.28-.41.54-.98.78-1.71.25-.73.48-1.58.7-2.54.22-.96.44-1.94.66-2.93.22-.99.43-1.96.63-2.91.2-.95.42-1.78.66-2.5-1.03.19-2.03.45-3,.78-.97.34-1.93.68-2.87,1.03-.3.07-.56.2-.78.39-.22.18-.47.34-.74.48-.14.17-.3.26-.5.28-.11-.01-.22-.06-.34-.15-.12-.09-.2-.15-.25-.19-.05-.04-.05-.12,0-.24.05-.13.1-.21.14-.26.18-.13.37-.25.55-.38.18-.13.37-.24.56-.35,2.46-1.16,4.94-1.98,7.44-2.46.09-.44.17-.87.23-1.28s.16-.82.27-1.22c.03-.11.11-.2.23-.27.13-.07.24-.13.34-.18.05.1.13.19.24.26s.15.15.14.26c-.03.38-.07.74-.14,1.11-.06.36-.11.72-.14,1.07.79-.16,1.64-.32,2.56-.48.91-.15,1.82-.28,2.74-.38.92-.1,1.82-.18,2.72-.25.9-.07,1.74-.1,2.52-.12.15-.01.32-.01.51.01.19.03.36.06.53.09.17.04.31.08.44.14.13.05.19.12.2.21.01.15-.04.23-.17.23-.13,0-.27-.01-.43-.04-2.05.03-4.03.18-5.94.45s-3.84.66-5.77,1.15c-.09.84-.17,1.74-.24,2.72-.07.98-.13,1.97-.18,2.99-.05,1.02-.1,2.03-.13,3.04-.03,1.01-.05,1.94-.05,2.79s0,1.6.04,2.25c.03.65.08,1.14.16,1.45.13.25.39.19.77-.17.38-.37.8-.89,1.27-1.56.47-.68.94-1.43,1.43-2.27.49-.83.89-1.59,1.22-2.28.17-.32.31-.53.43-.62.12-.09.21-.11.27-.06.06.05.09.15.08.32,0,.17-.05.35-.14.55-.09.18-.25.5-.48.95-.23.45-.5.96-.81,1.52-.32.57-.66,1.15-1.04,1.75-.38.61-.75,1.15-1.12,1.63s-.72.87-1.05,1.15c-.33.28-.62.39-.87.33-.13-.03-.28-.1-.45-.2-.16-.1-.28-.22-.36-.34-.19-.35-.3-.68-.34-.98-.04-.3-.08-.62-.11-.97-.08-1.74-.12-3.29-.11-4.67,0-1.37.05-2.73.14-4.07-.29,1.32-.58,2.54-.88,3.67-.3,1.13-.62,2.12-.95,2.96-.33.84-.69,1.5-1.07,1.98-.38.49-.77.75-1.18.79-.28.03-.54-.02-.79-.15-.24-.13-.45-.36-.64-.69-.19-.33-.33-.78-.43-1.35-.1-.57-.14-1.28-.11-2.13-.5.66-1,1.37-1.49,2.14-.49.77-1.04,1.42-1.64,1.96-.35.27-.63.4-.86.39s-.41-.1-.55-.26c-.14-.16-.24-.38-.31-.64-.07-.26-.11-.52-.14-.75-.06-.63-.03-1.26.08-1.9.12-.65.24-1.25.36-1.83.05-.22.13-.44.27-.65.13-.21.35-.31.66-.3.29.04.41.17.35.41s-.12.44-.18.62c-.12.8-.23,1.56-.35,2.29-.12.73-.11,1.47,0,2.22Z"/>
          <path class="cls-2" d="M116.11,78.18c-.23.09-.41.08-.54-.04-.13-.12-.21-.3-.23-.53-.03-.26-.05-.54-.06-.83-.02-.3,0-.57.06-.84.22-1.16.42-2.3.63-3.45.2-1.14.46-2.27.76-3.39.74-2.71,1.68-5.31,2.82-7.81,1.14-2.5,2.48-4.91,4.02-7.24.32-.49.65-.96.99-1.41.34-.45.71-.87,1.1-1.28.45-.48.91-.65,1.37-.51.46.14.75.56.86,1.24.1.56.14,1.12.12,1.7s-.05,1.15-.11,1.73c-.16,1.96-.33,3.91-.52,5.87-.19,1.96-.34,3.94-.45,5.93-.08.97-.12,1.92-.11,2.87,0,.95.02,1.9.05,2.86-.02.24-.01.46.03.67.04.21.09.42.13.66.05.02.09.03.14.04.04,0,.09.02.13.04.16-.21.3-.42.43-.63.13-.21.25-.43.36-.65.37-.73.73-1.47,1.1-2.21s.73-1.48,1.09-2.21c.98-2.08,1.98-4.12,3.02-6.14,1.04-2.02,2.2-3.99,3.5-5.93.62-1.02,1.32-1.98,2.11-2.89.11-.16.23-.33.36-.49.13-.17.26-.32.41-.45s.32-.23.5-.28c.18-.05.4-.04.64.02.25.09.44.2.56.35.13.15.22.33.28.53.06.2.1.42.11.64.01.23.01.44.01.64.05.96.07,1.9.07,2.83,0,.94-.02,1.9-.03,2.88,0,1.83.02,3.64.04,5.43.02,1.79.17,3.6.43,5.43.06.39.15.78.26,1.18.12.4.23.81.33,1.21.05.1.06.22.02.36-.04.13-.08.27-.1.4-.09-.04-.2-.05-.33-.05-.14,0-.23-.03-.27-.09-.14-.25-.29-.49-.44-.74-.15-.25-.25-.5-.3-.76-.16-.96-.32-1.93-.46-2.88-.15-.96-.23-1.92-.24-2.91-.06-1.76-.09-3.53-.08-5.31,0-1.78.01-3.55.02-5.32,0-.46-.01-.92-.04-1.37-.02-.46-.03-.9-.03-1.34-.14-.07-.24-.11-.31-.1-.2.22-.41.43-.64.63-.23.21-.42.44-.57.7-.8,1.21-1.59,2.4-2.37,3.57s-1.51,2.37-2.17,3.62c-.83,1.54-1.61,3.1-2.34,4.68-.73,1.58-1.48,3.14-2.24,4.7-.26.5-.5.99-.74,1.46s-.48.94-.71,1.43c-.11.19-.22.36-.32.52-.11.16-.24.32-.4.46-.32.32-.63.45-.94.4-.31-.05-.56-.26-.75-.63-.11-.27-.22-.54-.31-.82-.09-.27-.14-.55-.15-.84-.02-1.13-.05-2.26-.09-3.38-.03-1.12-.02-2.25.05-3.39.13-1.99.3-3.96.5-5.9.2-1.94.37-3.91.5-5.9.03-.42.04-.85.04-1.3s0-.93.02-1.46c-.2.15-.36.27-.47.34-.11.08-.21.15-.29.23-.25.33-.5.66-.74.99-.24.33-.47.67-.7,1.02-1.89,2.95-3.51,6-4.86,9.13-1.35,3.13-2.35,6.43-2.99,9.89-.15.72-.25,1.43-.3,2.16-.05.72-.12,1.48-.22,2.27Z"/>
          <path class="cls-2" d="M146.18,65.98c.76-.31,1.5-.76,2.24-1.35.74-.58,1.42-1.16,2.04-1.72.16-.14.3-.28.4-.41s.24-.26.4-.38c.22.02.36.09.41.19.05.1,0,.24-.16.41-.29.38-.64.77-1.06,1.18s-.86.81-1.32,1.21c-.46.4-.93.75-1.42,1.06-.48.31-.92.55-1.32.72-1.01.41-1.77.38-2.3-.07-.53-.45-.68-1.24-.46-2.38.05-.2.13-.48.24-.84.12-.36.26-.73.43-1.1.17-.38.37-.75.59-1.11.23-.36.47-.66.75-.9.27-.25.56-.39.87-.45.31-.05.63.04.96.27.26.21.39.53.39.96,0,.43-.17.87-.52,1.34-.1.12-.23.26-.4.43-.17.17-.35.32-.56.45-.21.13-.42.21-.65.25-.23.03-.43-.03-.62-.19-.18.35-.33.71-.43,1.09-.1.38-.13.7-.07.97.06.27.21.45.45.56.24.11.61.05,1.11-.18ZM146.76,61.22c-.15.19-.36.46-.62.81-.26.35-.52.73-.79,1.12.31-.18.61-.41.9-.68.29-.27.46-.69.51-1.26Z"/>
          <path class="cls-2" d="M151.68,63.77c.35-.6.7-1.19,1.04-1.75s.71-1.11,1.11-1.63c.19-.26.43-.54.72-.84.29-.3.59-.42.9-.36.2.04.35.18.43.4.09.22.14.47.16.75s.01.56-.02.83c-.03.28-.06.49-.12.65-.04.09-.13.2-.28.34-.15.13-.31.16-.47.06v-2.12c-.7.74-1.31,1.52-1.83,2.33-.52.81-.91,1.69-1.16,2.63-.07.18-.12.38-.14.61-.02.22-.03.43-.04.62.04.37-.1.6-.42.7-.19.04-.35,0-.47-.1-.12-.11-.21-.25-.27-.43-.06-.18-.1-.36-.13-.54-.03-.18-.04-.33-.03-.44.03-.83.06-1.72.1-2.67.04-.95.08-1.85.13-2.68.01-.11.04-.25.09-.4.05-.16.12-.3.2-.43.09-.13.19-.21.32-.26.13-.05.27-.02.43.07.05.06.09.17.13.33.04.16.04.31.01.44-.02.24-.05.54-.09.89-.04.35-.09.72-.14,1.09-.05.38-.09.74-.13,1.08-.03.34-.05.62-.05.84Z"/>
          <path class="cls-2" d="M157.6,51.42c.09-.44.17-.87.23-1.28.07-.41.16-.82.27-1.22.03-.11.11-.2.23-.27.13-.07.24-.13.34-.18.05.1.13.19.24.26.1.07.15.15.14.26-.03.37-.08.74-.14,1.11-.06.37-.11.73-.14,1.08.79-.17,1.64-.32,2.55-.48s1.82-.28,2.74-.38,1.83-.18,2.72-.25c.89-.07,1.74-.1,2.52-.12.15-.02.32-.01.51.01.19.03.36.06.53.1.17.04.31.08.44.14s.19.12.2.21c.01.15-.04.23-.17.23-.13,0-.27-.01-.43-.04-2.05.03-4.03.18-5.94.45-1.91.28-3.84.66-5.77,1.16-.09.84-.17,1.74-.24,2.72-.07.98-.13,1.97-.18,2.99-.05,1.02-.1,2.03-.13,3.04-.03,1.01-.05,1.94-.05,2.79,0,.85.01,1.6.04,2.25s.08,1.14.16,1.46c.13.25.39.19.77-.17.38-.37.8-.89,1.27-1.56.46-.68.94-1.43,1.43-2.26.49-.83.89-1.59,1.22-2.28.16-.32.31-.53.43-.62.12-.09.21-.11.27-.06.06.05.09.15.08.32,0,.17-.05.35-.14.55-.09.18-.25.5-.48.95-.23.45-.5.95-.82,1.52-.32.57-.66,1.15-1.04,1.75-.38.61-.75,1.15-1.12,1.63-.37.48-.71.87-1.05,1.15s-.62.39-.87.33c-.13-.03-.28-.1-.44-.2-.16-.1-.28-.22-.36-.34-.19-.35-.3-.68-.34-.98-.04-.3-.08-.62-.11-.97-.07-1.37-.1-2.63-.11-3.78,0-1.15.02-2.26.06-3.33s.11-2.13.19-3.19c.08-1.06.17-2.2.27-3.41-1.03.19-2.03.45-3.01.79-.98.34-1.94.68-2.89,1.03-.3.07-.56.2-.78.39-.22.18-.46.34-.74.48-.14.17-.3.26-.5.28-.11-.01-.22-.06-.34-.15-.12-.09-.2-.15-.25-.19-.05-.04-.05-.12,0-.25.05-.13.1-.21.14-.26.18-.13.37-.25.55-.38.18-.13.37-.24.56-.35,2.46-1.16,4.94-1.98,7.44-2.46Z"/>
        </g>
      </g>
      <circle class="cls-2" cx="91.31" cy="63.32" r=".66"/>
      <circle class="cls-2" cx="93.87" cy="62.98" r=".66"/>
    </g>
  </g>
</svg>