<?xml version="1.0" encoding="UTF-8"?>
<svg id="Layer_2" data-name="Layer 2" xmlns="http://www.w3.org/2000/svg" viewBox="0 0 383.83 103.21">
  <defs>
    <style>
      .cls-1 {
        fill: #fff;
      }
    </style>
  </defs>
  <g id="Layer_1-2" data-name="Layer 1">
    <g>
      <path class="cls-1" d="M51.56,58.33c0,7.17-2.36,13.21-7.07,18.12-3.65,3.8-7.89,6.13-12.7,6.99l-.79-7.04c-.05-.49.24-.95.72-1.13,4.07-1.51,6.96-5.15,7.6-9.36.09-.59.14-1.18.14-1.79v-15.13c0-1.79-1.45-3.24-3.24-3.24-.34,0-.66.05-.97.15-1.32.41-2.28,1.65-2.28,3.09v12.97c0,.59-.48,1.08-1.08,1.08s-1.08-.49-1.08-1.08v-12.97c0-1.79-1.45-3.24-3.24-3.24s-3.24,1.46-3.24,3.24v12.97c0,.59-.48,1.08-1.08,1.08s-1.08-.49-1.08-1.08v-12.97c0-1.79-1.45-3.24-3.24-3.24s-3.24,1.46-3.24,3.24v15.13c0,3.16,1.28,6.13,3.41,8.32,1.2,1.23,2.67,2.21,4.34,2.82.48.18.77.64.72,1.13l-.79,7.11c-5.41-.84-9.71-3.46-12.89-7.84v26.27H0V34.1h10.47v6.98c3.94-5.49,9.6-8.24,16.96-8.24,6.66,0,12.34,2.47,17.06,7.41,4.72,4.94,7.07,10.97,7.07,18.08Z"/>
      <path class="cls-1" d="M71.53,42.24v-8.14h-10.47v48.46h10.47v-24.43c0-4.98,1.49-8.54,4.46-10.71,2.97-2.16,6.46-3.12,10.47-2.86v-11.34c-7.3,0-12.28,3.01-14.93,9.01Z"/>
      <g>
        <path class="cls-1" d="M115.72,74.23c-4.01,0-7.4-.98-10.18-2.96-1.98-1.4-3.45-3.24-4.41-5.52h-10.94c1.11,4.14,3.22,7.76,6.34,10.85,4.85,4.82,11.21,7.22,19.09,7.22,9.37,0,16.44-3.52,21.22-10.57l-8.62-5.04c-2.78,4.01-6.95,6.01-12.5,6.01Z"/>
        <g>
          <path class="cls-1" d="M132.34,40.3c-4.55-4.97-10.39-7.46-17.49-7.46-7.5,0-13.63,2.44-18.42,7.32-4.78,4.88-7.17,10.94-7.17,18.17,0,1.54.11,3.03.32,4.46h49.21c.26-1.81.39-3.26.39-4.36,0-7.11-2.28-13.15-6.83-18.13ZM100.12,54.26c.71-3.68,2.36-6.59,4.94-8.72,2.58-2.13,5.82-3.2,9.69-3.2,3.43,0,6.41,1,8.97,3,2.55,2,4.18,4.98,4.89,8.92h-28.49Z"/>
          <circle class="cls-1" cx="114.59" cy="27.4" r="5.83"/>
        </g>
      </g>
      <path class="cls-1" d="M182.4,34.39c7.04,0,13.02,2.42,17.93,7.27,4.91,4.85,7.37,10.82,7.37,17.93s-2.46,13.08-7.37,17.93c-4.91,4.85-10.89,7.27-17.93,7.27-5.36,0-10.16-1.49-14.39-4.46-4.23-2.97-7.22-6.88-8.97-11.73v34.6h-1.94V35.36h1.94v15.22c1.74-4.85,4.73-8.75,8.97-11.73,4.23-2.97,9.03-4.46,14.39-4.46ZM165.83,76.26c4.52,4.52,10.05,6.78,16.57,6.78s12.05-2.26,16.57-6.78c4.52-4.52,6.78-10.08,6.78-16.67s-2.26-12.15-6.78-16.67c-4.52-4.52-10.05-6.78-16.57-6.78s-12.05,2.26-16.57,6.78c-4.52,4.52-6.78,10.08-6.78,16.67s2.26,12.15,6.78,16.67Z"/>
      <path class="cls-1" d="M221.27,83.82V13.07h1.94v70.75h-1.94Z"/>
      <path class="cls-1" d="M285.43,35.36h1.94v48.46h-1.94v-14.83c-1.87,4.78-4.91,8.61-9.11,11.49-4.2,2.88-8.95,4.31-14.25,4.31-7.04,0-13.02-2.42-17.93-7.27-4.91-4.85-7.37-10.82-7.37-17.93s2.45-13.08,7.37-17.93c4.91-4.85,10.89-7.27,17.93-7.27,5.3,0,10.05,1.44,14.25,4.31,4.2,2.88,7.24,6.7,9.11,11.49v-14.83ZM245.5,76.26c4.52,4.52,10.05,6.78,16.57,6.78s12.05-2.26,16.57-6.78c4.52-4.52,6.78-10.08,6.78-16.67s-2.26-12.15-6.78-16.67c-4.52-4.52-10.05-6.78-16.57-6.78s-12.05,2.26-16.57,6.78-6.78,10.08-6.78,16.67,2.26,12.15,6.78,16.67Z"/>
      <path class="cls-1" d="M327.98,37.11h-15.41v35.96c0,4.26,1.16,7.04,3.49,8.33,2.33,1.29,6.3,1.52,11.92.68v1.74c-6.07.97-10.48.61-13.23-1.07-2.75-1.68-4.12-4.91-4.12-9.69v-35.96h-11.63v-1.74h11.63v-12.99l1.94-.58v13.57h15.41v1.74Z"/>
      <path class="cls-1" d="M338.64,47.91c0,2.77,1.08,4.92,3.26,6.47s4.8,2.65,7.89,3.33c3.09.68,6.17,1.36,9.26,2.03,3.08.68,5.71,1.96,7.86,3.85,2.16,1.89,3.24,4.43,3.24,7.62,0,3.81-1.58,7.03-4.75,9.64-3.17,2.62-7.24,3.93-12.21,3.93-9.56,0-15.54-3.39-17.93-10.18l1.55-.87c2,6.2,7.46,9.3,16.38,9.3,4.39,0,8-1.11,10.81-3.34s4.22-5.06,4.22-8.48c0-2.84-1.08-5.07-3.25-6.69-2.17-1.61-4.79-2.77-7.88-3.46-3.09-.69-6.17-1.39-9.26-2.08-3.08-.69-5.71-1.93-7.87-3.71-2.17-1.78-3.25-4.22-3.25-7.32,0-3.88,1.47-7.11,4.41-9.69,2.94-2.58,6.9-3.88,11.87-3.88,3.75,0,6.98.84,9.69,2.52,2.71,1.68,4.65,3.94,5.82,6.78l-1.55.87c-1.03-2.58-2.78-4.64-5.23-6.15-2.46-1.52-5.36-2.28-8.72-2.28-4.33,0-7.8,1.09-10.42,3.28-2.62,2.19-3.93,5.02-3.93,8.49Z"/>
      <path class="cls-1" d="M383.83,17.59c.02-2.06-.66-3.88-1.74-5.34-.28-.39-.9-.25-.97.23-.22,1.76-.47,3.29-.98,4.53-.57,1.53-1.48,2.46-2.85,4.05-.65.79-1.48,1.8-1.99,3.21-.44,1.36-.47,2.66-.26,3.89.36,1.98,1.25,3.7,2.56,5.05.33.33.9.12.92-.34.07-1.79.1-3.39.38-4.78.17-.82.38-1.56.69-2.12.26-.47.74-1.06,1.39-1.82.61-.76,1.39-1.69,1.95-2.82.56-1.17.89-2.48.92-3.72Z"/>
      <path class="cls-1" d="M374.36,2.45c-.32-.36-.88-.18-.94.27-.24,2.51-.5,4.72-1.14,6.46-.71,2.06-1.86,3.33-3.61,5.51-.84,1.08-1.9,2.44-2.52,4.35-.53,1.8-.52,3.57-.19,5.15.59,2.78,1.95,5.15,3.92,6.9.33.3.85.04.87-.41,0-2.56-.02-4.79.29-6.77.19-1.11.45-2.07.83-2.82.29-.63.92-1.46,1.75-2.5.8-1.05,1.78-2.3,2.48-3.83.73-1.53,1.12-3.28,1.1-4.96-.11-2.88-1.18-5.36-2.85-7.34Z"/>
      <path class="cls-1" d="M367.61.27c-.25-.41-.85-.34-.98.13-.45,1.72-.85,3.21-1.51,4.39-.75,1.46-1.74,2.27-3.31,3.7-.73.71-1.67,1.6-2.37,2.97-.59,1.29-.79,2.6-.71,3.83.12,2.03.81,3.81,1.95,5.28.28.39.88.21.97-.23.26-1.78.51-3.34.92-4.7.26-.8.56-1.49.93-2.01.28-.43.85-.98,1.58-1.65.7-.68,1.56-1.52,2.26-2.56.7-1.04,1.19-2.32,1.34-3.57.29-2.11-.15-3.97-1.07-5.57Z"/>
    </g>
  </g>
</svg>