<?xml version="1.0" encoding="UTF-8"?>
<svg id="Layer_2" data-name="Layer 2" xmlns="http://www.w3.org/2000/svg" viewBox="0 0 581.98 125.61">
  <defs>
    <style>
      .cls-1 {
        fill: #fff;
      }
    </style>
  </defs>
  <g id="Layer_1-2" data-name="Layer 1">
    <g>
      <g>
        <g id="_Radial_Repeat_" data-name="&amp;lt;Radial Repeat&amp;gt;">
          <g>
            <g>
              <path class="cls-1" d="M72.02,101.72c-6.17-6.55-9.39-14.82-9.68-23.17,8.31.79,16.38,4.49,22.55,11.04,6.18,6.55,9.39,14.83,9.68,23.17-8.31-.79-16.38-4.49-22.55-11.04Z"/>
              <path class="cls-1" d="M51.3,101.1c6.55-6.17,10.25-14.24,11.04-22.55-8.35.29-16.62,3.51-23.17,9.68s-10.25,14.24-11.04,22.55c8.34-.29,16.62-3.5,23.17-9.68Z"/>
            </g>
            <circle class="cls-1" cx="61.03" cy="114.7" r="10.91"/>
          </g>
        </g>
        <g id="_Radial_Repeat_-2" data-name="&amp;lt;Radial Repeat&amp;gt;">
          <g>
            <g>
              <path class="cls-1" d="M23.89,72.02c6.55-6.17,14.82-9.39,23.17-9.68-.79,8.31-4.49,16.38-11.04,22.55-6.55,6.18-14.83,9.39-23.17,9.68.79-8.31,4.49-16.38,11.04-22.55Z"/>
              <path class="cls-1" d="M24.51,51.3c6.17,6.55,14.24,10.25,22.55,11.04-.29-8.35-3.51-16.62-9.68-23.17-6.18-6.55-14.24-10.25-22.55-11.04.29,8.34,3.5,16.62,9.68,23.17Z"/>
            </g>
            <circle class="cls-1" cx="10.91" cy="61.03" r="10.91"/>
          </g>
        </g>
        <g id="_Radial_Repeat_-3" data-name="&amp;lt;Radial Repeat&amp;gt;">
          <g>
            <g>
              <path class="cls-1" d="M53.59,23.89c6.17,6.55,9.39,14.82,9.68,23.17-8.31-.79-16.38-4.49-22.55-11.04-6.18-6.55-9.39-14.83-9.68-23.17,8.31.79,16.38,4.49,22.55,11.04Z"/>
              <path class="cls-1" d="M74.31,24.51c-6.55,6.17-10.25,14.24-11.04,22.55,8.35-.29,16.62-3.51,23.17-9.68s10.25-14.24,11.04-22.55c-8.34.29-16.62,3.5-23.17,9.68Z"/>
            </g>
            <circle class="cls-1" cx="64.58" cy="10.91" r="10.91"/>
          </g>
        </g>
        <g id="_Radial_Repeat_-4" data-name="&amp;lt;Radial Repeat&amp;gt;">
          <g>
            <g>
              <path class="cls-1" d="M101.72,53.59c-6.55,6.17-14.82,9.39-23.17,9.68.79-8.31,4.49-16.38,11.04-22.55,6.55-6.18,14.83-9.39,23.17-9.68-.79,8.31-4.49,16.38-11.04,22.55Z"/>
              <path class="cls-1" d="M101.1,74.31c-6.17-6.55-14.24-10.25-22.55-11.04.29,8.35,3.51,16.62,9.68,23.17,6.18,6.55,14.24,10.25,22.55,11.04-.29-8.34-3.5-16.62-9.68-23.17Z"/>
            </g>
            <circle class="cls-1" cx="114.7" cy="64.58" r="10.91"/>
          </g>
        </g>
      </g>
      <g>
        <g>
          <path class="cls-1" d="M174.13,90.25c6.16,0,10.12,3.54,10.12,10.46,0,9.06-4.7,12.19-9.91,12.19h-6.81v-22.65h6.61ZM182.48,101.39c0-7.46-3.68-9.67-8.58-9.67h-4.67v19.72h5.18c4.97,0,8.07-3.51,8.07-10.05Z"/>
          <path class="cls-1" d="M194.36,91.34c0-.82.61-1.43,1.4-1.43s1.36.58,1.36,1.43-.65,1.46-1.4,1.46-1.36-.58-1.36-1.46ZM196.57,96.14v16.76h-1.7v-16.76h1.7Z"/>
          <path class="cls-1" d="M208.93,117.8c0-2.9,2.35-4.9,3.88-5.86-2.66-.2-4.94-1.43-4.94-5.62v-10.18h1.7v9.5c0,2.79.27,5.04,4.5,5.04,2.59,0,4.84-1.87,4.84-4.53v-10.01h1.63v17.03c0,1.67-.2,3.44-.65,4.7-.92,2.55-2.89,4.09-6.06,4.09-3.34,0-4.9-1.63-4.9-4.16ZM218.84,113.34v-3.03c-4.8,1.91-8.21,3.85-8.21,7.32,0,1.94,1.23,2.93,3.34,2.93,3.58,0,4.87-3.03,4.87-7.22Z"/>
          <path class="cls-1" d="M230.93,104.69c0-5.04,2.79-9.03,7.63-9.03,3.07,0,4.67,1.67,4.67,3.88,0,5.76-7.83,5.96-10.63,5.72.1,3.2,1.53,6.64,5.62,6.64,2.49,0,3.92-1.23,4.39-1.6l.85,1.19c-1.06.89-2.83,1.87-5.21,1.87-5.11,0-7.32-3.61-7.32-8.68ZM241.49,99.92c0-1.84-1.23-2.9-3-2.9-4.22,0-5.76,4.05-5.86,6.85,1.84.17,8.86.03,8.86-3.95Z"/>
          <path class="cls-1" d="M253.37,108.71v-19.48h1.7v6.91h5.04v1.36h-5.04v11.34c0,2.45.95,3.13,2.66,3.13,1.29,0,2.21-.54,2.79-.92l.65,1.19c-.95.72-2.35,1.12-3.54,1.12-3.71,0-4.26-1.98-4.26-4.67Z"/>
          <path class="cls-1" d="M269.61,91.34c0-.82.61-1.43,1.4-1.43s1.36.58,1.36,1.43-.65,1.46-1.4,1.46-1.36-.58-1.36-1.46ZM271.83,96.14v16.76h-1.7v-16.76h1.7Z"/>
          <path class="cls-1" d="M281.63,111.81l.75-1.29c.92.61,2.52,1.46,4.63,1.46s3.92-1.09,3.92-3.41-1.74-2.96-3.92-3.54c-2.45-.65-5.08-1.36-5.08-4.67s2.59-4.7,5.35-4.7c2.32,0,4.22,1.06,5.28,2.21l-1.06,1.12c-1.02-1.06-2.52-1.94-4.43-1.94-1.63,0-3.58.82-3.58,3.17,0,2.15,1.81,2.76,3.99,3.41,2.42.72,5.08,1.4,5.08,4.77s-2.35,4.97-5.62,4.97c-2.62,0-4.7-.99-5.31-1.57Z"/>
          <path class="cls-1" d="M303.09,117.8c0-2.9,2.35-4.9,3.88-5.86-2.66-.2-4.94-1.43-4.94-5.62v-10.18h1.7v9.5c0,2.79.27,5.04,4.5,5.04,2.59,0,4.84-1.87,4.84-4.53v-10.01h1.63v17.03c0,1.67-.2,3.44-.65,4.7-.92,2.55-2.89,4.09-6.06,4.09-3.34,0-4.9-1.63-4.9-4.16ZM313,113.34v-3.03c-4.8,1.91-8.21,3.85-8.21,7.32,0,1.94,1.23,2.93,3.34,2.93,3.58,0,4.87-3.03,4.87-7.22Z"/>
          <path class="cls-1" d="M325.08,104.69c0-5.04,2.79-9.03,7.63-9.03,3.07,0,4.67,1.67,4.67,3.88,0,5.76-7.83,5.96-10.63,5.72.1,3.2,1.53,6.64,5.62,6.64,2.49,0,3.92-1.23,4.39-1.6l.85,1.19c-1.06.89-2.83,1.87-5.21,1.87-5.11,0-7.32-3.61-7.32-8.68ZM335.64,99.92c0-1.84-1.23-2.9-3-2.9-4.22,0-5.76,4.05-5.86,6.85,1.84.17,8.86.03,8.86-3.95Z"/>
          <path class="cls-1" d="M347.39,96.14h1.53l.31,2.62c1.36-2.04,3.44-3.1,5.65-3.1,3.54,0,5.38,2.01,5.38,5.82v11.41h-1.7v-10.66c0-2.83-.65-5.18-3.99-5.18-3,0-5.35,2.49-5.35,4.7v11.14h-1.7v-14.51l-.14-2.25Z"/>
          <path class="cls-1" d="M399.01,110c-1.77,2.08-4.29,3.37-7.66,3.37-5.14,0-7.29-3.37-7.29-6.88,0-3.27,1.8-5.76,4.63-7.32-.78-1.4-1.16-2.76-1.16-3.99,0-3.07,1.98-5.31,5.55-5.31,2.76,0,4.5,1.53,5.31,2.76l-1.26.99c-.82-1.06-2.21-2.25-4.02-2.25-2.55,0-3.95,1.33-3.95,3.61,0,1.26.44,2.79,1.43,4.29,1.91,2.9,5.18,6.03,8.21,8.58,1.09-1.81,1.43-3.92,1.36-6.47h1.5v.65c0,2.35-.37,4.67-1.74,6.74,1.87,1.53,3.47,2.76,4.39,3.44l-.92,1.19c-1.19-.85-2.72-2.04-4.39-3.41ZM397.86,109.05c-3.13-2.62-6.33-5.62-8.38-8.62-2.28,1.06-3.71,3.17-3.71,5.93,0,3.24,1.91,5.59,5.86,5.59,2.69,0,4.73-1.09,6.23-2.89Z"/>
          <path class="cls-1" d="M434.02,90.25c4.6,0,7.36,2.25,7.36,6.61,0,5.01-3.37,7.46-8.14,7.46h-4.56v8.58h-1.7v-22.65h7.05ZM439.6,97.27c0-5.14-3.17-5.55-8.21-5.55h-2.72v11.14h4.05c4.05,0,6.88-1.53,6.88-5.59Z"/>
          <path class="cls-1" d="M449.75,111.81l.75-1.29c.92.61,2.52,1.46,4.63,1.46s3.92-1.09,3.92-3.41-1.74-2.96-3.92-3.54c-2.45-.65-5.07-1.36-5.07-4.67s2.59-4.7,5.35-4.7c2.32,0,4.22,1.06,5.28,2.21l-1.06,1.12c-1.02-1.06-2.52-1.94-4.43-1.94-1.64,0-3.58.82-3.58,3.17,0,2.15,1.8,2.76,3.98,3.41,2.42.72,5.08,1.4,5.08,4.77s-2.35,4.97-5.62,4.97c-2.62,0-4.7-.99-5.31-1.57Z"/>
          <path class="cls-1" d="M470.04,91.34c0-.82.61-1.43,1.4-1.43s1.36.58,1.36,1.43-.65,1.46-1.4,1.46-1.36-.58-1.36-1.46ZM472.26,96.14v16.76h-1.7v-16.76h1.7Z"/>
          <path class="cls-1" d="M485.3,89.23v12.06c.85-2.52,2.93-5.62,6.98-5.62,3.07,0,4.19,1.94,4.19,4.22s-1.19,5.11-4.43,6.64l4.29,6.37h-1.98l-3.85-5.59c-1.19.27-3.54.51-5.21.48v5.11h-1.7v-23.67h1.7ZM494.77,99.99c0-1.74-.65-2.86-2.73-2.86-3.85,0-6.81,4.87-6.88,9.2,7.32.24,9.6-3.07,9.6-6.33Z"/>
          <path class="cls-1" d="M505.32,104.32c0-7.02,4.05-8.65,7.32-8.65,2.25,0,6.68.71,6.68,8.31,0,6.74-3.13,9.4-7.29,9.4s-6.71-2.93-6.71-9.06ZM517.62,104.59c0-4.26-1.36-7.46-5.18-7.46s-5.42,3-5.42,6.95c0,3.51.78,7.9,5.25,7.9,3.71,0,5.35-3.54,5.35-7.39Z"/>
          <path class="cls-1" d="M529.74,108.27v-19.04h1.7v18.87c0,2.96.51,3.88,2.38,3.88.85,0,1.7-.27,2.32-.58l.44,1.26c-.58.37-1.7.71-3.07.71-3.61,0-3.78-2.38-3.78-5.11Z"/>
          <path class="cls-1" d="M543.9,104.32c0-7.02,4.05-8.65,7.32-8.65,2.25,0,6.68.71,6.68,8.31,0,6.74-3.13,9.4-7.29,9.4s-6.71-2.93-6.71-9.06ZM556.2,104.59c0-4.26-1.36-7.46-5.18-7.46s-5.42,3-5.42,6.95c0,3.51.78,7.9,5.25,7.9,3.71,0,5.35-3.54,5.35-7.39Z"/>
          <path class="cls-1" d="M569.1,117.56c0-3.03,2.45-4.8,4.67-5.99-3.1-.2-6.37-1.7-6.37-7.53s3.23-8.38,7.66-8.38c1.77,0,4.19.34,6.03,1.12v15.12c0,1.53-.1,3.24-.37,4.53-.75,3.41-3,5.42-6.51,5.42s-5.11-1.57-5.11-4.29ZM579.39,105.64v-7.83c-1.23-.48-2.76-.78-4.5-.78-2.59,0-5.79,1.33-5.79,6.68,0,2.89.55,6.68,5.31,6.68,2.79,0,4.97-1.91,4.97-4.73ZM579.35,112.83v-2.89c-5.93,2.72-8.55,4.8-8.55,7.49,0,2.15,1.43,3,3.44,3,3.92,0,5.11-3.51,5.11-7.6Z"/>
        </g>
        <g>
          <path class="cls-1" d="M192.42,31.05c10.45,5.84,17.41,9.4,16.75,19.93-1.08,17.34-30.81,18.22-41.65,9.35l3.68-11.17h.57c3.02,19.4,28.94,18.79,29.61,5.83.36-7.03-6.61-11.2-13.59-14.75-9.08-4.61-19.09-8.43-19.09-19.54,0-15.27,20.83-18.1,32.57-12.8,3.27,1.48,5-.35,5.37-2.13h.71l-1.33,12.81h-.76c-5.41-15.89-29.61-14.33-29.61-1.91,0,6.62,8.7,9.88,16.77,14.39Z"/>
          <path class="cls-1" d="M216.43,27.91c10.19-5.48,31.23-6.96,31.23,9.12v22.77c0,2.03.4,4.13,2.41,4.68v.81c-4.16,0-11.13.54-11.13-5.43-5.05,8.75-24.01,7.17-24.01-4.98,0-7.57,7.84-16.58,24.01-17.23v-2.25c0-6.95-2.41-9.65-6.46-9.65-4.99,0-10.42,4.12-13.78,9.29h-.48l-1.79-7.12ZM223.14,53.69c0,11.6,15.81,10.59,15.81-1.02v-13.23c-10.67,0-15.81,7.74-15.81,14.25Z"/>
          <path class="cls-1" d="M267.62,59.78c0,2.03,2.59,4.13,4.3,4.68v.81h-17.31v-.81c1.7-.55,4.28-2.64,4.3-4.66V11.58c0-2.97-2.54-3.14-4.46-3.14v-.81l9.92-3.77h3.26v55.91Z"/>
          <path class="cls-1" d="M289.27,59.78c0,2.03,2.59,4.13,4.3,4.68v.81h-17.31v-.81c1.71-.55,4.3-2.66,4.3-4.68v-27.18c0-2.97-2.54-3.14-4.46-3.14v-.81l9.92-4.52h3.26v35.64ZM284.9,17.54c-3.03,0-5.49-2.46-5.49-5.49s2.46-5.49,5.49-5.49,5.5,2.46,5.5,5.49-2.46,5.49-5.5,5.49Z"/>
          <path class="cls-1" d="M336.27,38.02v21.76c0,2.03,2.59,4.13,4.3,4.68v.81h-17.31v-.81c1.71-.55,4.3-2.66,4.3-4.68v-26.87c0-5.14-2.67-7.07-6.02-7.07-5.52,0-11.11,5.15-11.11,11.46v22.49c0,2.03,2.59,4.13,4.3,4.68v.81h-17.31v-.81c1.7-.55,4.28-2.64,4.3-4.66V11.58c0-2.97-2.54-3.14-4.46-3.14v-.81l9.92-3.77h3.26v24.93c7.88-7.88,25.85-7.85,25.85,9.22Z"/>
          <path class="cls-1" d="M346.72,27.91c10.19-5.48,31.23-6.96,31.23,9.12v22.77c0,2.03.4,4.13,2.41,4.68v.81c-4.16,0-11.13.54-11.13-5.43-5.05,8.75-24.01,7.17-24.01-4.98,0-7.57,7.84-16.58,24.01-17.23v-2.25c0-6.95-2.41-9.65-6.46-9.65-4.99,0-10.42,4.12-13.78,9.29h-.48l-1.79-7.12ZM353.43,53.69c0,11.6,15.81,10.59,15.81-1.02v-13.23c-10.67,0-15.81,7.74-15.81,14.25Z"/>
          <path class="cls-1" d="M420.72,65.58v-.77c2.01-.52,5.06-2.53,5.06-4.46V7.48h-6.14c-6.18,0-8.94,7.81-9.61,10.21h-1.01l.89-11.92h41.28l.88,11.92h-1.01c-.67-2.4-3.42-10.21-9.61-10.21h-6.14v52.87c0,1.93,3.04,3.94,5.06,4.46v.77h-19.65Z"/>
          <path class="cls-1" d="M450.84,27.91c10.19-5.48,31.23-6.96,31.23,9.12v22.77c0,2.03.4,4.13,2.41,4.68v.81c-4.16,0-11.13.54-11.13-5.43-5.05,8.75-24.01,7.17-24.01-4.98,0-7.57,7.84-16.58,24.01-17.23v-2.25c0-6.95-2.41-9.65-6.46-9.65-4.99,0-10.42,4.12-13.78,9.29h-.48l-1.79-7.12ZM457.55,53.69c0,11.6,15.81,10.59,15.81-1.02v-13.23c-10.67,0-15.81,7.74-15.81,14.25Z"/>
          <path class="cls-1" d="M506,65.4l-1.04,2.79c3.38.91,4.22,3.15,4.11,4.97-.25,4.17-7.07,8.03-11.93,3.72l.57-.97c7.32,3.68,9.67-6.44,3.56-5.98l2.62-4.39c-.36.01-.73.03-1.1.03-4.58-.03-9.21-1.16-12.46-3.1l1.37-9.15h.47c1.72,7.2,5.96,10.44,12.53,10.42,4.2-.01,7.64-2.02,7.48-5.96-.33-7.91-20.28-10.07-21.4-20.98-.79-7.66,6.06-12.72,14.86-12.49,2.34.06,4.7.46,6.83,1.26,1.61.6,3.59,1.28,4.29-1.2h.53l-1.61,10.1h-.47c-1.85-12.15-17.86-9.62-17.89-3.15-.04,8.74,21.12,11.48,21.13,22.12,0,7.02-5.21,11.09-12.46,11.96Z"/>
          <path class="cls-1" d="M532.93,45.14c0,10.19,3.81,18.32,13.04,18.32,5.19,0,9.49-1.42,11.2-9.58h.58l1.88,6.71c-4.22,3.31-9.44,4.9-14.57,4.9-13.84,0-20.81-8.67-20.81-20.45s7.14-20.99,21.52-20.99c2.5,0,4.97.6,7.12,1.42,5.02,1.91,5.5-.63,5.8-1.43h.46l-1.14,11.06h-.65c-2-6.86-6.09-9.46-11.02-9.46-8.86,0-13.4,9.35-13.4,19.5Z"/>
          <path class="cls-1" d="M581.98,64.77v.81h-17.31v-.81c1.71-.55,4.3-2.66,4.3-4.68v-27.18c0-2.97-2.54-3.14-4.46-3.14v-.81l9.92-4.52h3.26v35.64c0,2.03,2.59,4.13,4.3,4.68Z"/>
        </g>
      </g>
    </g>
  </g>
</svg>